<svg xmlns="http://www.w3.org/2000/svg" data-name="Layer 2" viewBox="0 0 100 125" x="0px" y="0px"><title>aArtboard 5</title><path d="M35.79248,42.78613a3.92065,3.92065,0,0,1,2.00879-2.50976,6.77608,6.77608,0,0,1,3.29785-.88233A7.3467,7.3467,0,0,1,45.22461,40.752c1.78955,1.25782,2.6001,2.918,2.4541,3.84229-.12158.77148-2.56152,1.4541-4.34326,1.95264-2.05371.575-4.41937,1.24041-5.89661,2.49749a1.9063,1.9063,0,0,0-.76269-.01166C35.94952,47.23682,35.25232,44.78076,35.79248,42.78613Zm-6.68506,6.46094c-1.229-1.19971-2.87939-2.811-3.69287-2.811a.47939.47939,0,0,0-.17285.02978c-.87305.33643-1.9043,1.86963-2.09619,4.04834a6.87344,6.87344,0,0,0,3.30615,6.66406,3.9218,3.9218,0,0,0,3.17432.48194c1.99157-.528,3.76971-2.36231,4.963-3.89191a2.98127,2.98127,0,0,1-.37409-.66986C32.38922,52.44757,30.63147,50.73529,29.10742,49.24707ZM37,35A17,17,0,1,1,20,52,17.019,17.019,0,0,1,37,35Zm-.16162,3.52344a5.8996,5.8996,0,0,0-2.97608,3.73974c-.69433,2.56263.153,5.54291,1.00562,7.63068a3.00311,3.00311,0,0,0-.656,1.01739,19.45005,19.45005,0,0,1-3.70752-3.09533c-2.08544-2.03613-4.05859-3.9585-5.98242-3.21631-1.77246.68359-3.12646,2.98975-3.36865,5.73877a8.8585,8.8585,0,0,0,4.26318,8.55078,6.004,6.004,0,0,0,3.14356.916,6.13792,6.13792,0,0,0,1.58349-.21289c2.5691-.68348,4.72657-2.91419,6.10633-4.69886a2.47445,2.47445,0,0,0,1.18365.06275,19.40719,19.40719,0,0,1-.85443,4.75915c-.7373,2.81983-1.43359,5.48291.16553,6.78955a4.76042,4.76042,0,0,0,3.0293.92627,9.164,9.164,0,0,0,8.94482-8.7749,5.90228,5.90228,0,0,0-1.72852-4.456c-1.86566-1.89454-4.87255-2.66523-7.10626-2.9809a2.97446,2.97446,0,0,0-.55169-1.08295,19.387,19.387,0,0,1,4.54223-1.66321c2.80664-.78564,5.45752-1.52734,5.77979-3.56738.29638-1.87646-1.022-4.20312-3.27979-5.79A8.861,8.861,0,0,0,36.83838,38.52344Zm1.67578,21.69775c-.46826,1.78955-1.10889,4.24072-.50391,4.73486.72413.59131,2.5669.729,4.55518-.18164a6.87394,6.87394,0,0,0,4.1543-6.17089,3.91916,3.91916,0,0,0-1.15479-3c-1.447-1.46949-3.91339-2.10657-5.829-2.38538a2.985,2.985,0,0,1-.40558.64789C39.67242,55.77618,39.05371,58.15625,38.51416,60.22119ZM98,50A48,48,0,1,1,50,2,48,48,0,0,1,98,50ZM61,52a2,2,0,1,0,2-2A2,2,0,0,0,61,52Zm3.80029-8.82031a8.97264,8.97264,0,0,1,7.01709,7.00586.9998.9998,0,0,0,.97852.79931.98506.98506,0,0,0,.20166-.0205.999.999,0,0,0,.77881-1.17969,10.96814,10.96814,0,0,0-8.57862-8.56494.99993.99993,0,0,0-.39746,1.96ZM74,56a1,1,0,0,0-2,0V70a3.00328,3.00328,0,0,1-3,3H19a3.00328,3.00328,0,0,1-3-3V34a3.00328,3.00328,0,0,1,3-3H60a1,1,0,0,0,0-2H19a5.00588,5.00588,0,0,0-5,5V70a5.00588,5.00588,0,0,0,5,5H69a5.00588,5.00588,0,0,0,5-5ZM37,33A19,19,0,1,0,56,52,19.02162,19.02162,0,0,0,37,33ZM82.97119,49.94531a18.95847,18.95847,0,0,0-17.918-17.9165,1,1,0,0,0-.10937,1.99707A16.96124,16.96124,0,0,1,80.97412,50.05469,1.00006,1.00006,0,0,0,81.97168,51q.02782,0,.05566-.00146A1.0003,1.0003,0,0,0,82.97119,49.94531ZM92,50A27.03077,27.03077,0,0,0,65,23a1,1,0,0,0,0,2A25.02817,25.02817,0,0,1,90,50a1,1,0,0,0,2,0Z"/><text x="0" y="115" fill="#000000" font-size="5px" font-weight="bold" font-family="'Helvetica Neue', Helvetica, Arial-Unicode, Arial, Sans-serif">Created by Path Lord</text><text x="0" y="120" fill="#000000" font-size="5px" font-weight="bold" font-family="'Helvetica Neue', Helvetica, Arial-Unicode, Arial, Sans-serif">from the Noun Project</text></svg>