<svg xmlns="http://www.w3.org/2000/svg" data-name="Layer 2" viewBox="0 0 100 125" x="0px" y="0px"><title>Artboard 13</title><path d="M60.707,40.707A.99989.99989,0,0,0,59.293,39.293a13.15738,13.15738,0,0,1-18.58594,0A.99989.99989,0,1,0,39.293,40.707a13.15738,13.15738,0,0,1,0,18.58594A.99989.99989,0,0,0,40.707,60.707a13.15738,13.15738,0,0,1,18.58594,0A.99989.99989,0,1,0,60.707,59.293,13.15738,13.15738,0,0,1,60.707,40.707ZM56.17236,56.17236a15.22161,15.22161,0,0,0-12.34472,0,15.22417,15.22417,0,0,0,0-12.34472,15.22417,15.22417,0,0,0,12.34472,0A15.22417,15.22417,0,0,0,56.17236,56.17236ZM75.3335,59.6665a15.5649,15.5649,0,0,0-9.40882,3.1698,27.39911,27.39911,0,0,1,0-25.6726,15.72684,15.72684,0,1,0-3.08856-3.08857,27.39906,27.39906,0,0,1-25.67224,0,15.72736,15.72736,0,1,0-3.08856,3.08857,27.39911,27.39911,0,0,1,0,25.6726,15.72684,15.72684,0,1,0,3.08856,3.08857,27.39906,27.39906,0,0,1,25.67224,0A15.64674,15.64674,0,1,0,75.3335,59.6665Zm-13.667-35a13.71191,13.71191,0,1,1,5.27192,10.76184A27.25218,27.25218,0,0,1,70.707,30.707l2.85175-2.85174a3.53176,3.53176,0,0,0,3.54907.00006l4.27789,4.27746a.99989.99989,0,1,0,1.41406-1.41406l-4.278-4.27753A3.62173,3.62173,0,0,0,79,24.6665,3.671,3.671,0,0,0,75.3335,21a3.62173,3.62173,0,0,0-1.77472.47815l-4.279-4.27942a.99989.99989,0,0,0-1.41407,1.41406l4.27893,4.27936a3.53176,3.53176,0,0,0,.00006,3.54907L69.293,29.293a27.25416,27.25416,0,0,1-4.72144,3.76843A13.58529,13.58529,0,0,1,61.6665,24.6665Zm14.84772,1.17463-.004.00262-.00256.00391a1.6697,1.6697,0,1,1,.00653-.00653ZM24.6665,38.3335a13.71193,13.71193,0,1,1,10.762-5.2721A27.25416,27.25416,0,0,1,30.707,29.293l-2.85174-2.85175a3.5319,3.5319,0,0,0-.00007-3.54937l4.27759-4.27759a.99989.99989,0,1,0-1.41406-1.41406L26.441,21.478A3.6215,3.6215,0,0,0,24.6665,21,3.671,3.671,0,0,0,21,24.6665a3.62132,3.62132,0,0,0,.47815,1.77478l-4.27893,4.27893a.99989.99989,0,1,0,1.41406,1.41407l4.27893-4.27893a3.53165,3.53165,0,0,0,3.549-.00006L29.293,30.707a27.25218,27.25218,0,0,1,3.76861,4.72131A13.58534,13.58534,0,0,1,24.6665,38.3335ZM23,24.6665a1.66557,1.66557,0,0,1,2.8418-1.18017l.002.00293.003.002A1.66626,1.66626,0,1,1,23,24.6665Zm15.3335,50.667a13.71191,13.71191,0,1,1-5.27192-10.76184A27.25218,27.25218,0,0,1,29.293,69.293l-2.85175,2.85174a3.53176,3.53176,0,0,0-3.54907-.00006l-4.27789-4.27746a.99989.99989,0,1,0-1.41406,1.41406l4.278,4.27753A3.62173,3.62173,0,0,0,21,75.3335,3.671,3.671,0,0,0,24.6665,79a3.62173,3.62173,0,0,0,1.77472-.47815l4.279,4.27942a.99989.99989,0,0,0,1.41407-1.41406l-4.27893-4.27936a3.53176,3.53176,0,0,0-.00006-3.54907L30.707,70.707a27.25416,27.25416,0,0,1,4.72144-3.76843A13.58529,13.58529,0,0,1,38.3335,75.3335ZM23.48578,74.15887l.004-.00262.00256-.00391a1.6697,1.6697,0,1,1-.00653.00653ZM50,60.72949a29.30359,29.30359,0,0,0-14.15576,3.64618c-.07269-.07416-.14575-.14715-.21991-.21985a29.38489,29.38489,0,0,0,0-28.31164c.07416-.0727.14722-.14569.21991-.21985a29.38726,29.38726,0,0,0,28.31152,0c.07269.07416.14575.14715.21991.21985a29.38489,29.38489,0,0,0,0,28.31164c-.07416.0727-.14722.14569-.21991.21985A29.30359,29.30359,0,0,0,50,60.72949ZM75.3335,89a13.64485,13.64485,0,0,1-10.762-22.0614A27.25416,27.25416,0,0,1,69.293,70.707l2.85174,2.85175a3.5319,3.5319,0,0,0,.00007,3.54937l-4.27759,4.27759a.99989.99989,0,1,0,1.41406,1.41406L73.559,78.522A3.6215,3.6215,0,0,0,75.3335,79,3.671,3.671,0,0,0,79,75.3335a3.62132,3.62132,0,0,0-.47815-1.77478l4.27893-4.27893a.99989.99989,0,0,0-1.41406-1.41407l-4.27893,4.27893a3.53165,3.53165,0,0,0-3.549.00006L70.707,69.293a27.25218,27.25218,0,0,1-3.76861-4.72131A13.65921,13.65921,0,1,1,75.3335,89ZM74.15625,74.15625l.00232-.00348a1.6666,1.6666,0,1,1-.00037,2.3609l-.00195-.00293-.003-.002a1.66234,1.66234,0,0,1-.00049-2.35016ZM23.6665,15.0835a1.00005,1.00005,0,0,1,1-1,10.52148,10.52148,0,0,1,3.98731.77685,1,1,0,1,1-.75391,1.85254,8.537,8.537,0,0,0-3.2334-.62939A1.00006,1.00006,0,0,1,23.6665,15.0835Zm2,19.1665a1,1,0,0,1-1,1,10.50406,10.50406,0,0,1-4.3164-.91748,1.00018,1.00018,0,1,1,.8164-1.82617,8.51217,8.51217,0,0,0,3.5.74365A1,1,0,0,1,25.6665,34.25Zm57.62061-6.34131a8.53633,8.53633,0,0,0,.62939-3.23291,1,1,0,0,1,2,0,10.519,10.519,0,0,1-.77685,3.98682,1,1,0,0,1-1.85254-.75391Zm-15.79346-6.7334A8.51607,8.51607,0,0,0,66.75,24.67578a1,1,0,1,1-2,0,10.50964,10.50964,0,0,1,.91748-4.31689,1.00018,1.00018,0,1,1,1.82617.8164ZM32.61133,78.57471a8.5249,8.5249,0,0,0,.62988-3.23242,1,1,0,0,1,2,0,10.52312,10.52312,0,0,1-.77734,3.98681,1.00013,1.00013,0,1,1-1.85254-.75439ZM16.81787,71.8418a8.516,8.516,0,0,0-.74365,3.50049,1,1,0,0,1-2,0,10.50969,10.50969,0,0,1,.91748-4.3169,1.00018,1.00018,0,1,1,1.82617.81641ZM76.32422,84.9165a1.00005,1.00005,0,0,1-1,1,10.519,10.519,0,0,1-3.98682-.77685,1,1,0,0,1,.75391-1.85254,8.53633,8.53633,0,0,0,3.23291.62939A1.00006,1.00006,0,0,1,76.32422,84.9165ZM80.146,66.98877a.99922.99922,0,0,1-1.32129.50488A8.51607,8.51607,0,0,0,75.32422,66.75a1,1,0,0,1,0-2,10.50964,10.50964,0,0,1,4.31689.91748A1.00081,1.00081,0,0,1,80.146,66.98877ZM50,46a4,4,0,1,0,4,4A4.00458,4.00458,0,0,0,50,46Zm0,6a2,2,0,1,1,2-2A2.002,2.002,0,0,1,50,52Z"/><text x="0" y="115" fill="#000000" font-size="5px" font-weight="bold" font-family="'Helvetica Neue', Helvetica, Arial-Unicode, Arial, Sans-serif">Created by Path Lord</text><text x="0" y="120" fill="#000000" font-size="5px" font-weight="bold" font-family="'Helvetica Neue', Helvetica, Arial-Unicode, Arial, Sans-serif">from the Noun Project</text></svg>