<svg xmlns="http://www.w3.org/2000/svg" data-name="Layer 2" viewBox="0 0 100 125" x="0px" y="0px"><title>aArtboard 8</title><path d="M23.5,61.25a1,1,0,1,1,1,1A1.001,1.001,0,0,1,23.5,61.25ZM15,72H85V70H15Zm34.5,2v4h1V74ZM30,82.626V84H70V82.626A27.5633,27.5633,0,0,0,58.292,80H41.708A27.5633,27.5633,0,0,0,30,82.626ZM98,50A48,48,0,1,1,50,2,48,48,0,0,1,98,50ZM87,73V26a.99974.99974,0,0,0-1-1H14a.99974.99974,0,0,0-1,1V73a.99974.99974,0,0,0,1,1H47.5v4H41.708a29.56518,29.56518,0,0,0-13.15528,3.10547A.99985.99985,0,0,0,28,82v3a.99974.99974,0,0,0,1,1H71a.99974.99974,0,0,0,1-1V82a.99985.99985,0,0,0-.55273-.89453A29.56518,29.56518,0,0,0,58.292,78H52.5V74H86A.99974.99974,0,0,0,87,73ZM15,27H85V68H15Zm7.5,9.25a.99974.99974,0,0,0,1,1,25.02817,25.02817,0,0,1,25,25,1,1,0,0,0,2,0,27.03077,27.03077,0,0,0-27-27A.99974.99974,0,0,0,22.5,36.25Zm0,8a.99974.99974,0,0,0,1,1,17.019,17.019,0,0,1,17,17,1,1,0,0,0,2,0,19.02162,19.02162,0,0,0-19-19A.99974.99974,0,0,0,22.5,44.25Zm0,8a.99974.99974,0,0,0,1,1,9.01016,9.01016,0,0,1,9,9,1,1,0,0,0,2,0,11.01245,11.01245,0,0,0-11-11A.99974.99974,0,0,0,22.5,52.25Zm-1,9a3,3,0,1,0,3-3A3.00328,3.00328,0,0,0,21.5,61.25Z"/><text x="0" y="115" fill="#000000" font-size="5px" font-weight="bold" font-family="'Helvetica Neue', Helvetica, Arial-Unicode, Arial, Sans-serif">Created by Path Lord</text><text x="0" y="120" fill="#000000" font-size="5px" font-weight="bold" font-family="'Helvetica Neue', Helvetica, Arial-Unicode, Arial, Sans-serif">from the Noun Project</text></svg>