<svg xmlns="http://www.w3.org/2000/svg" data-name="Layer 2" viewBox="0 0 100 125" x="0px" y="0px"><title>aArtboard 6</title><path d="M21.75,77h38v2h-38Zm32-50h-26V45h26ZM27.49414,57,22.09375,75h37.3125L54.00586,57ZM68.25,49a1,1,0,1,0-1-1A1.001,1.001,0,0,0,68.25,49ZM98,50A48,48,0,1,1,50,2,48,48,0,0,1,98,50ZM65.25,48a3,3,0,1,0,3-3A3.00328,3.00328,0,0,0,65.25,48Zm10.5,6.3335a1,1,0,0,0-2,0V61H57.29413L55.708,55.71289A1.00024,1.00024,0,0,0,54.75,55h-28a1.00024,1.00024,0,0,0-.958.71289L24.20587,61H9.75V43h6.05957L18.958,46.65283A1.00033,1.00033,0,0,0,19.71582,47H58.8877a1.00035,1.00035,0,0,0,.75781-.34717l3.44824-4a1.00023,1.00023,0,0,0-1.51562-1.30566L58.42969,45H55.75V26a.99974.99974,0,0,0-1-1h-28a.99974.99974,0,0,0-1,1V45H20.17383l-3.14844-3.65283A1.00035,1.00035,0,0,0,16.26758,41H8.75a.99974.99974,0,0,0-1,1V62a.99974.99974,0,0,0,1,1H23.60583L19.792,75.71289A1.03972,1.03972,0,0,1,19.75,76v4a.99974.99974,0,0,0,1,1h40a.99974.99974,0,0,0,1-1V76a1.03552,1.03552,0,0,1-.042-.28711L57.89417,63H74.75a.99974.99974,0,0,0,1-1ZM78.25,49a11.01245,11.01245,0,0,0-11-11,1,1,0,0,0,0,2,9.01016,9.01016,0,0,1,9,9,1,1,0,0,0,2,0Zm8,0a19.02162,19.02162,0,0,0-19-19,1,1,0,0,0,0,2,17.019,17.019,0,0,1,17,17,1,1,0,0,0,2,0Zm8,0a27.03077,27.03077,0,0,0-27-27,1,1,0,0,0,0,2,25.02817,25.02817,0,0,1,25,25,1,1,0,0,0,2,0Z"/><text x="0" y="115" fill="#000000" font-size="5px" font-weight="bold" font-family="'Helvetica Neue', Helvetica, Arial-Unicode, Arial, Sans-serif">Created by Path Lord</text><text x="0" y="120" fill="#000000" font-size="5px" font-weight="bold" font-family="'Helvetica Neue', Helvetica, Arial-Unicode, Arial, Sans-serif">from the Noun Project</text></svg>