<svg xmlns="http://www.w3.org/2000/svg" data-name="Layer 2" viewBox="0 0 100 125" x="0px" y="0px"><title>aArtboard 19</title><path d="M23.06543,56.01318a2.6155,2.6155,0,0,1,3.622-2.41723l-1.7099,1.7102a.99989.99989,0,1,0,1.41406,1.41406l1.70978-1.71008a2.61792,2.61792,0,1,1-5.03595,1.00305Zm2.61914-10.5791a1,1,0,1,0-1-1A1.001,1.001,0,0,0,25.68457,45.43408Zm33.165,7.2334c-5.63,0-10.62341,2.41919-12.98547,6.14551H71.832C69.46838,55.1297,64.40161,52.66748,58.84961,52.66748ZM44.49219,60.813l1.708,5.979H71.5498l1.68775-5.90832a1.00148,1.00148,0,0,1-.15064-.07068ZM26.3916,68.29932a.99989.99989,0,1,1-1.41406-1.41407L26.68719,65.175a2.6237,2.6237,0,1,0,1.41407,1.414ZM98,50A48,48,0,1,1,50,2,48,48,0,0,1,98,50ZM23.68457,19.43408a.99974.99974,0,0,0,1,1,25.02817,25.02817,0,0,1,25,25,1,1,0,0,0,2,0,27.03078,27.03078,0,0,0-27-27A.99974.99974,0,0,0,23.68457,19.43408ZM73.62988,66.792l1.916-6.7041A1.00009,1.00009,0,0,0,74.584,58.813h-.45727c-2.42749-4.90167-8.43805-8.14551-15.2771-8.14551-6.81531,0-12.84436,3.24994-15.2735,8.14551H43.166a1.00009,1.00009,0,0,0-.96192,1.2749l1.916,6.7041H38.5a1,1,0,0,0,0,2H79.25a1,1,0,0,0,0-2ZM23.68457,27.43408a.99974.99974,0,0,0,1,1,17.019,17.019,0,0,1,17,17,1,1,0,0,0,2,0,19.02162,19.02162,0,0,0-19-19A.99974.99974,0,0,0,23.68457,27.43408Zm0,8a.99974.99974,0,0,0,1,1,9.01016,9.01016,0,0,1,9,9,1,1,0,0,0,2,0,11.01245,11.01245,0,0,0-11-11A.99974.99974,0,0,0,23.68457,35.43408Zm-1,9a3,3,0,1,0,3-3A3.00328,3.00328,0,0,0,22.68457,44.43408Zm-1.61914,11.5791a4.61865,4.61865,0,1,0,4.61914-4.61865A4.624,4.624,0,0,0,21.06543,56.01318Zm4.61914,6.96045a4.61841,4.61841,0,1,0,4.61816,4.61866A4.62412,4.62412,0,0,0,25.68457,62.97363ZM84,74.56592V38.03955a3.00328,3.00328,0,0,0-3-3H53.75a1,1,0,0,0,0,2H81a1.001,1.001,0,0,1,1,1V74.56592a1.001,1.001,0,0,1-1,1H35.36816V50.21924a1,1,0,0,0-2,0V75.56592H19a1.001,1.001,0,0,1-1-1V38.03955a1.001,1.001,0,0,1,1-1h1.833a1,1,0,0,0,0-2H19a3.00328,3.00328,0,0,0-3,3V74.56592a3.00328,3.00328,0,0,0,3,3H81A3.00328,3.00328,0,0,0,84,74.56592Z"/><text x="0" y="115" fill="#000000" font-size="5px" font-weight="bold" font-family="'Helvetica Neue', Helvetica, Arial-Unicode, Arial, Sans-serif">Created by Path Lord</text><text x="0" y="120" fill="#000000" font-size="5px" font-weight="bold" font-family="'Helvetica Neue', Helvetica, Arial-Unicode, Arial, Sans-serif">from the Noun Project</text></svg>