<svg xmlns="http://www.w3.org/2000/svg" data-name="Layer 2" viewBox="0 0 100 125" x="0px" y="0px"><title>Artboard 12</title><path d="M76.87744,86.08887v6a1.00005,1.00005,0,0,1-1,1H54.37207a1,1,0,1,1,0-2H74.87744v-4h-.7998a4.00458,4.00458,0,0,1-4-4v-.79981H55.27783v.79981A3.985,3.985,0,0,1,52.481,86.90479a.99993.99993,0,0,1-.60157-1.90723,1.99293,1.99293,0,0,0,1.39844-1.90869V81.28906a1.00006,1.00006,0,0,1,1-1H71.07764a1.00006,1.00006,0,0,1,1,1v1.79981a2.002,2.002,0,0,0,2,2h1.7998A1,1,0,0,1,76.87744,86.08887ZM58.07764,34.689V32.08887a1,1,0,0,1,1-1h7.20019a1,1,0,0,1,1,1V34.689h6.19971a.99984.99984,0,0,1,.89453.55274L76.772,40.042a1.00009,1.00009,0,0,1-.89453,1.44727H49.47754A1.00009,1.00009,0,0,1,48.583,40.042l2.3999-4.80029a.99985.99985,0,0,1,.89453-.55274Zm14.78174,2H52.49561l-1.39991,2.8003H74.25928Zm-12.78174-2h5.20019V33.08887H60.07764ZM84.45313,47.1333,82.44629,60.74756a8.93094,8.93094,0,0,1-4.66211,6.58008L73.2251,69.72626l-1.15772,8.10431a.99962.99962,0,0,1-.98974.85839H54.27783a.99962.99962,0,0,1-.98974-.85839L50.26782,56.68982l-7.31469-9.55554a1,1,0,0,1,.79394-1.60791h4.92584l-.18512-1.2959a.99977.99977,0,0,1,.98975-1.1416h26.3999a.99977.99977,0,0,1,.98975,1.1416l-.251,1.75683h6.84766a1.00032,1.00032,0,0,1,.98926,1.146ZM58.95154,45.08887,61.20905,76.689h2.93737l2.257-31.60009Zm-9.26166,7.55554-.21527-1.50684-.51611-3.6112H45.772ZM55.145,76.689h4.05872L56.94623,45.08887H50.63037l.86975,6.08783.71033,4.97125v.00055ZM74.72461,45.08887H68.40875L66.15173,76.689h4.05872Zm7.58105,2.89843H76.33051L73.5741,67.283l3.27844-1.72485a6.92471,6.92471,0,0,0,3.61523-5.10206ZM52.47754,90.08887a3,3,0,1,1-3-3A3.00328,3.00328,0,0,1,52.47754,90.08887Zm-2,0a1,1,0,1,0-1,1A1.0013,1.0013,0,0,0,50.47754,90.08887Zm1-9a1,1,0,0,0-1-1,11.01245,11.01245,0,0,0-11,11,1,1,0,0,0,2,0,9.01047,9.01047,0,0,1,9-9A1.00005,1.00005,0,0,0,51.47754,81.08887Zm-2.50928-7.96533a.99655.99655,0,0,0-1.12842-.85254,19.06752,19.06752,0,0,0-16.3623,18.81787,1,1,0,0,0,2,0A17.06019,17.06019,0,0,1,48.11523,74.25146,1.00019,1.00019,0,0,0,48.96826,73.12354ZM45.669,66.55078a.99994.99994,0,0,0-.38282-1.96289,27.03326,27.03326,0,0,0-21.80859,26.501,1,1,0,0,0,2,0A25.0297,25.0297,0,0,1,45.669,66.55078ZM32.5083,41.542a9.32552,9.32552,0,0,0,7.72363,3.62158,10.9335,10.9335,0,0,0,2.35352-.23681,1,1,0,0,0-.46045-1.94629c-.22461.05322-5.52393,1.22705-8.30176-3.04785a.99439.99439,0,0,0-.99658-.44239c-.05908.01026-6.07471.91309-7.94287-3.95849a.99985.99985,0,1,0-1.86719.71582C24.82617,40.96631,29.68994,41.78125,32.5083,41.542Zm13.69483-8.6958a1.00069,1.00069,0,0,0-.44532,1.44824c1.75586,2.793-.648,5.418-.751,5.52832a.99993.99993,0,0,0,1.45263,1.37452,6.80191,6.80191,0,0,0,1.481-7.02686,6.47351,6.47351,0,0,0,2.831-3.27734,4.23253,4.23253,0,0,0-.16455-2.97364,9.34005,9.34005,0,0,0,3.1587-5.126c.58935-2.77149-.19092-5.76319-2.31983-8.89258a.99989.99989,0,0,0-1.65332,1.125c1.80273,2.65039,2.4834,5.11523,2.02246,7.32617a7.50331,7.50331,0,0,1-3.00537,4.42188.99938.99938,0,0,0-.32812,1.36914,2.53725,2.53725,0,0,1,.38476,2.1416A5.23655,5.23655,0,0,1,46.20313,32.84619ZM27.12061,17.73584c4.33056-.66455,7.12793,1.457,8.29541,3.66553a5.34565,5.34565,0,0,1-.58448,6.22851c-1.62939,1.74561-2.249,3.46-1.84131,5.09473.51856,2.08105,2.60108,3.33984,3.773,3.89746a4.06893,4.06893,0,0,0,.62745,2.93213,4.14617,4.14617,0,0,0,2.82861,1.62012.95924.95924,0,0,0,.09814.00488.99993.99993,0,0,0,.09619-1.99512,2.20111,2.20111,0,0,1-1.3872-.78076,2.5899,2.5899,0,0,1-.16211-2.14355,1.00223,1.00223,0,0,0-.64209-1.18946c-.78906-.27539-2.91895-1.32129-3.29248-2.83349-.231-.93457.228-2.02539,1.36377-3.24268a7.31643,7.31643,0,0,0,.89111-8.52734c-1.48926-2.81641-4.99316-5.53467-10.36768-4.70752a.99988.99988,0,0,0,.30372,1.97656Zm5.22265-3.02246h.00733a1.00008,1.00008,0,0,0,.99267-1.00733c-.00146-.17626.03418-4.32031,5.78809-4.77539a5.82086,5.82086,0,0,1,5.57226,2.97413,7.50974,7.50974,0,0,1-.50732,8.0166.99986.99986,0,1,0,1.65723,1.11914A9.49009,9.49009,0,0,0,46.43115,10.897a7.7812,7.7812,0,0,0-7.458-3.96045c-7.5874.60108-7.63037,6.72266-7.62988,6.78418A1.00008,1.00008,0,0,0,32.34326,14.71338Zm-4.604,17.62256a1,1,0,0,0,.65625-1.88916A4.88931,4.88931,0,0,1,25.27,25.69141a1.00214,1.00214,0,0,0-1.17236-1.01465c-.03418.00635-3.39942.5542-5.34961-1.729a5.72021,5.72021,0,0,1-1.16211-4.36718,6.10966,6.10966,0,0,1,2.5083-4.29932,1,1,0,0,0-1.15918-1.62988,8.19551,8.19551,0,0,0-3.334,5.68457,7.64057,7.64057,0,0,0,1.62647,5.91064,7.72026,7.72026,0,0,0,6.09033,2.49414A6.90223,6.90223,0,0,0,27.73926,32.33594Z"/><text x="0" y="115" fill="#000000" font-size="5px" font-weight="bold" font-family="'Helvetica Neue', Helvetica, Arial-Unicode, Arial, Sans-serif">Created by Path Lord</text><text x="0" y="120" fill="#000000" font-size="5px" font-weight="bold" font-family="'Helvetica Neue', Helvetica, Arial-Unicode, Arial, Sans-serif">from the Noun Project</text></svg>