<svg xmlns="http://www.w3.org/2000/svg" data-name="Layer 2" viewBox="0 0 100 125" x="0px" y="0px"><title>Artboard 19</title><path d="M84,40.03955V76.56592a3.00328,3.00328,0,0,1-3,3H19a3.00328,3.00328,0,0,1-3-3V40.03955a3.00328,3.00328,0,0,1,3-3h1.833a1,1,0,0,1,0,2H19a1.001,1.001,0,0,0-1,1V76.56592a1.001,1.001,0,0,0,1,1H33.36816V52.21924a1,1,0,0,1,2,0V77.56592H81a1.001,1.001,0,0,0,1-1V40.03955a1.001,1.001,0,0,0-1-1H53.75a1,1,0,0,1,0-2H81A3.00328,3.00328,0,0,1,84,40.03955ZM21.06543,58.01318a4.61865,4.61865,0,1,1,4.61914,4.61817A4.62412,4.62412,0,0,1,21.06543,58.01318Zm2,0a2.61865,2.61865,0,1,0,5.036-1.00305L26.3916,58.72021a.99989.99989,0,1,1-1.41406-1.41406l1.7099-1.7102a2.6155,2.6155,0,0,0-3.622,2.41723Zm7.2373,11.57911a4.61865,4.61865,0,1,1-4.61816-4.61866A4.62317,4.62317,0,0,1,30.30273,69.59229Zm-2,0a2.60174,2.60174,0,0,0-.20147-1.0033L26.3916,70.29932a.99989.99989,0,1,1-1.41406-1.41407L26.68719,67.175a2.61739,2.61739,0,1,0,1.61554,2.4173ZM22.68457,46.43408a3,3,0,1,1,3,3A3.00328,3.00328,0,0,1,22.68457,46.43408Zm2,0a1,1,0,1,0,1-1A1.001,1.001,0,0,0,24.68457,46.43408Zm0-8a9.01016,9.01016,0,0,1,9,9,1,1,0,0,0,2,0,11.01245,11.01245,0,0,0-11-11,1,1,0,0,0,0,2Zm0-8a17.019,17.019,0,0,1,17,17,1,1,0,0,0,2,0,19.02162,19.02162,0,0,0-19-19,1,1,0,0,0,0,2Zm0-8a25.02817,25.02817,0,0,1,25,25,1,1,0,0,0,2,0,27.03078,27.03078,0,0,0-27-27,1,1,0,0,0,0,2ZM75.5459,62.08789l-1.916,6.7041H79.25a1,1,0,0,1,0,2H38.5a1,1,0,0,1,0-2h5.62006l-1.916-6.7041A1.00009,1.00009,0,0,1,43.166,60.813h.41009c2.42914-4.89557,8.45819-8.14551,15.2735-8.14551,6.83905,0,12.84961,3.24384,15.2771,8.14551H74.584a1.00009,1.00009,0,0,1,.96192,1.2749ZM45.86414,60.813H71.832c-2.36365-3.68329-7.43042-6.14551-12.98242-6.14551C53.2196,54.66748,48.2262,57.08667,45.86414,60.813ZM71.5498,68.792l1.68775-5.90832a1.00148,1.00148,0,0,1-.15064-.07068H44.49219l1.708,5.979Z"/><text x="0" y="115" fill="#000000" font-size="5px" font-weight="bold" font-family="'Helvetica Neue', Helvetica, Arial-Unicode, Arial, Sans-serif">Created by Path Lord</text><text x="0" y="120" fill="#000000" font-size="5px" font-weight="bold" font-family="'Helvetica Neue', Helvetica, Arial-Unicode, Arial, Sans-serif">from the Noun Project</text></svg>