<svg xmlns="http://www.w3.org/2000/svg" data-name="Layer 2" viewBox="0 0 100 125" x="0px" y="0px"><title>aArtboard 9</title><path d="M37.5,61.5a1,1,0,1,1,1,1A1.001,1.001,0,0,1,37.5,61.5Zm-14-38h53v53h-53Zm13,13a.99974.99974,0,0,0,1,1,25.02817,25.02817,0,0,1,25,25,1,1,0,0,0,2,0,27.03077,27.03077,0,0,0-27-27A.99974.99974,0,0,0,36.5,36.5Zm0,8a.99974.99974,0,0,0,1,1,17.019,17.019,0,0,1,17,17,1,1,0,0,0,2,0,19.02162,19.02162,0,0,0-19-19A.99974.99974,0,0,0,36.5,44.5Zm0,8a.99974.99974,0,0,0,1,1,9.01016,9.01016,0,0,1,9,9,1,1,0,0,0,2,0,11.01245,11.01245,0,0,0-11-11A.99974.99974,0,0,0,36.5,52.5Zm-1,9a3,3,0,1,0,3-3A3.00328,3.00328,0,0,0,35.5,61.5Zm4,26h21a6.01033,6.01033,0,0,0,5.917-5H33.583A6.01033,6.01033,0,0,0,39.5,87.5Zm21-75h-21a6.01033,6.01033,0,0,0-5.917,5H66.417A6.01033,6.01033,0,0,0,60.5,12.5ZM98,50A48,48,0,1,1,50,2,48,48,0,0,1,98,50ZM31.5,18.5a.99974.99974,0,0,0,1,1h35a.99974.99974,0,0,0,1-1,8.00917,8.00917,0,0,0-8-8h-21A8.00917,8.00917,0,0,0,31.5,18.5Zm37,63a.99974.99974,0,0,0-1-1h-35a.99974.99974,0,0,0-1,1,8.00917,8.00917,0,0,0,8,8h21A8.00917,8.00917,0,0,0,68.5,81.5Zm10-59a.99974.99974,0,0,0-1-1h-55a.99974.99974,0,0,0-1,1v55a.99974.99974,0,0,0,1,1h55a.99974.99974,0,0,0,1-1Zm4,23a1,1,0,0,0-2,0v9a1,1,0,0,0,2,0Z"/><text x="0" y="115" fill="#000000" font-size="5px" font-weight="bold" font-family="'Helvetica Neue', Helvetica, Arial-Unicode, Arial, Sans-serif">Created by Path Lord</text><text x="0" y="120" fill="#000000" font-size="5px" font-weight="bold" font-family="'Helvetica Neue', Helvetica, Arial-Unicode, Arial, Sans-serif">from the Noun Project</text></svg>