<svg xmlns="http://www.w3.org/2000/svg" data-name="Layer 2" viewBox="0 0 100 125" x="0px" y="0px"><title>Artboard 11</title><path d="M52.9541,50.606a4.00545,4.00545,0,0,0,.02606-.47821,35.679,35.679,0,0,1,14.44953.21942,29.22923,29.22923,0,0,1,13.16357,6.78222,3.02054,3.02054,0,0,0,2.0874.84131,3.07382,3.07382,0,0,0,.84473-.11914,2.988,2.988,0,0,0,2.09033-2.1372,11.35783,11.35783,0,0,0-1.22119-8.82373,16.52274,16.52274,0,0,0-10.11621-7.18506c-11.2652-2.86066-19.475,2.951-23.43579,6.7608a3.28563,3.28563,0,0,0-1.71515-.44666,35.66739,35.66739,0,0,1,.21979-14.4494,29.22923,29.22923,0,0,1,6.78222-13.16357,3.02949,3.02949,0,0,0-1.415-5.02295,11.366,11.366,0,0,0-8.82422,1.22168,16.524,16.524,0,0,0-7.18457,10.11621c-2.86036,11.26239,2.95153,19.47351,6.76117,23.43518a3.28206,3.28206,0,0,0-.4469,1.71527,35.67013,35.67013,0,0,1-14.44953-.2193,29.22923,29.22923,0,0,1-13.16357-6.78222,3.02949,3.02949,0,0,0-5.02295,1.415,11.35738,11.35738,0,0,0,1.22168,8.82422,16.524,16.524,0,0,0,10.11621,7.18457,24.15761,24.15761,0,0,0,5.96631.76416c8.20569,0,14.2453-4.42474,17.47015-7.52472a3.98775,3.98775,0,0,0,1.2359.42023,4.09128,4.09128,0,0,0,.48029.03668,35.65643,35.65643,0,0,1-.2215,14.43891,29.22923,29.22923,0,0,1-6.78222,13.16357,3.02949,3.02949,0,0,0,1.415,5.02295,11.87686,11.87686,0,0,0,3.00977.395,11.35371,11.35371,0,0,0,5.81445-1.6167,16.524,16.524,0,0,0,7.18457-10.11621C62.15479,64.016,56.343,55.80487,52.53333,51.84314A3.98746,3.98746,0,0,0,52.9541,50.606Zm20.832-8.96192a14.49086,14.49086,0,0,1,8.88575,6.2627,9.27568,9.27568,0,0,1,1.00927,7.30176.99974.99974,0,0,1-.7041.71972,1.02945,1.02945,0,0,1-1.00684-.249,31.21339,31.21339,0,0,0-14.04833-7.27051,32.27245,32.27245,0,0,0-7.91456-.93115,42.80975,42.80975,0,0,0-7.47045.68164,4.03636,4.03636,0,0,0-.23035-.3877C55.93726,44.25281,63.39093,39.00452,73.78613,41.644ZM40.644,25.21387a14.48892,14.48892,0,0,1,6.2627-8.88574,9.27435,9.27435,0,0,1,4.77588-1.34473,9.9572,9.9572,0,0,1,2.52539.335,1.00089,1.00089,0,0,1,.72021.70459,1.02914,1.02914,0,0,1-.249,1.00684,31.21338,31.21338,0,0,0-7.27051,14.04834,37.49522,37.49522,0,0,0-.24927,15.38476,4.04186,4.04186,0,0,0-.38775.23047C43.2525,43.0636,38.00305,35.614,40.644,25.21387ZM24.21387,58.356a14.48892,14.48892,0,0,1-8.88574-6.2627A9.27694,9.27694,0,0,1,14.31836,44.792a1.00089,1.00089,0,0,1,.70459-.72021,1.09622,1.09622,0,0,1,.2959-.041,1.01176,1.01176,0,0,1,.71094.29,31.21338,31.21338,0,0,0,14.04834,7.27051,37.49333,37.49333,0,0,0,15.38494.24939,4.0476,4.0476,0,0,0,.23047.38788C42.06323,55.74738,34.61322,60.99689,24.21387,58.356ZM57.356,74.78613a14.489,14.489,0,0,1-6.2627,8.88575A9.27635,9.27635,0,0,1,43.792,84.68164a1.00089,1.00089,0,0,1-.72021-.70459,1.02914,1.02914,0,0,1,.249-1.00684,31.21339,31.21339,0,0,0,7.27051-14.04833,37.48687,37.48687,0,0,0,.25134-15.37262,4.07277,4.07277,0,0,0,.38788-.24042C54.74969,56.93939,59.9964,64.38818,57.356,74.78613Zm2.68017,14.72461A1.00019,1.00019,0,0,1,59.311,90.7251,42.00588,42.00588,0,1,1,91,50a41.70556,41.70556,0,0,1-3.48486,16.77637,1,1,0,1,1-1.833-.79981A40.00683,40.00683,0,1,0,49,90a40.16476,40.16476,0,0,0,9.82178-1.21436A1.00255,1.00255,0,0,1,60.03613,89.51074ZM67,86a3,3,0,1,0,3,3A3.00328,3.00328,0,0,0,67,86Zm0,4a1,1,0,1,1,1-1A1.0013,1.0013,0,0,1,67,90Zm10,0a1,1,0,0,1-2,0,9.01047,9.01047,0,0,0-9-9,1,1,0,0,1,0-2A11.01245,11.01245,0,0,1,77,90Zm8,0a1,1,0,0,1-2,0A17.019,17.019,0,0,0,66,73a1,1,0,0,1,0-2A19.02162,19.02162,0,0,1,85,90Zm8,0a1,1,0,0,1-2,0A25.02817,25.02817,0,0,0,66,65a1,1,0,0,1,0-2A27.03077,27.03077,0,0,1,93,90Z"/><text x="0" y="115" fill="#000000" font-size="5px" font-weight="bold" font-family="'Helvetica Neue', Helvetica, Arial-Unicode, Arial, Sans-serif">Created by Path Lord</text><text x="0" y="120" fill="#000000" font-size="5px" font-weight="bold" font-family="'Helvetica Neue', Helvetica, Arial-Unicode, Arial, Sans-serif">from the Noun Project</text></svg>