<svg xmlns="http://www.w3.org/2000/svg" data-name="Layer 2" viewBox="0 0 100 125" x="0px" y="0px"><title>Artboard 1</title><path d="M85.98389,47.56982,50.707,12.293a.99962.99962,0,0,0-1.41406,0L35,26.58594V22a1,1,0,0,0-1-1H26a1,1,0,0,0-1,1V36.58594L14.01611,47.56982a3.47841,3.47841,0,0,0,.00049,4.91407,3.559,3.559,0,0,0,4.91358,0L22,49.41406V87a1,1,0,0,0,1,1H77a1,1,0,0,0,1-1V49.41406l3.06982,3.06983a3.47477,3.47477,0,0,0,4.91407-4.91407Zm-1.41455,3.5a1.51045,1.51045,0,0,1-2.08545,0L77.707,46.293A.99991.99991,0,0,0,76,47V86H24V47a.99991.99991,0,0,0-1.707-.707l-4.77686,4.77685a1.475,1.475,0,0,1-2.08593-2.08593L26.707,37.707A1.00012,1.00012,0,0,0,27,37V23h6v6a.99991.99991,0,0,0,1.707.707L50,14.41406,84.56982,48.98389A1.47691,1.47691,0,0,1,84.56934,51.06982ZM31,76a3,3,0,1,0,3,3A3.00328,3.00328,0,0,0,31,76Zm0,4a1,1,0,1,1,1-1A1.0013,1.0013,0,0,1,31,80Zm10,0a1,1,0,0,1-2,0,9.01047,9.01047,0,0,0-9-9,1,1,0,0,1,0-2A11.01245,11.01245,0,0,1,41,80Zm8,0a1,1,0,0,1-2,0A17.019,17.019,0,0,0,30,63a1,1,0,0,1,0-2A19.02162,19.02162,0,0,1,49,80Zm8,0a1,1,0,0,1-2,0A25.02817,25.02817,0,0,0,30,55a1,1,0,0,1,0-2A27.03077,27.03077,0,0,1,57,80Z"/><text x="0" y="115" fill="#000000" font-size="5px" font-weight="bold" font-family="'Helvetica Neue', Helvetica, Arial-Unicode, Arial, Sans-serif">Created by Path Lord</text><text x="0" y="120" fill="#000000" font-size="5px" font-weight="bold" font-family="'Helvetica Neue', Helvetica, Arial-Unicode, Arial, Sans-serif">from the Noun Project</text></svg>