<svg xmlns="http://www.w3.org/2000/svg" data-name="Layer 2" viewBox="0 0 100 125" x="0px" y="0px"><title>Artboard 5</title><path d="M15,53A19,19,0,1,0,34,34,19.02162,19.02162,0,0,0,15,53Zm36,0A17,17,0,1,1,34,36,17.019,17.019,0,0,1,51,53ZM30.8623,43.26318c-.69433,2.56263.153,5.54291,1.00562,7.63068a3.00256,3.00256,0,0,0-.65607,1.01746,19.464,19.464,0,0,1-3.70746-3.0954c-2.08593-2.03662-4.05712-3.96-5.98242-3.21631-1.77246.68359-3.12646,2.98975-3.36865,5.73877a8.8585,8.8585,0,0,0,4.26318,8.55078,6.004,6.004,0,0,0,3.14356.916,6.13792,6.13792,0,0,0,1.58349-.21289c2.5691-.68348,4.72657-2.91419,6.10633-4.69886a2.47445,2.47445,0,0,0,1.18365.06275,19.40719,19.40719,0,0,1-.85443,4.75915c-.7373,2.81983-1.43359,5.48291.16553,6.78955a4.76042,4.76042,0,0,0,3.0293.92627,9.164,9.164,0,0,0,8.94482-8.7749,5.90228,5.90228,0,0,0-1.72852-4.456c-1.86474-1.89362-4.87225-2.6648-7.10626-2.98084a2.9748,2.9748,0,0,0-.55169-1.083,19.387,19.387,0,0,1,4.54223-1.66321c2.80664-.78564,5.45752-1.52734,5.77979-3.56738.29638-1.87646-1.022-4.20312-3.27979-5.79a8.862,8.862,0,0,0-9.53613-.59228A5.8996,5.8996,0,0,0,30.8623,43.26318ZM26.626,58.66016a3.91747,3.91747,0,0,1-3.17432-.48194,6.87344,6.87344,0,0,1-3.30615-6.66406c.19189-2.17871,1.22314-3.71191,2.09619-4.04834a.47939.47939,0,0,1,.17285-.02978c.81348,0,2.46387,1.61132,3.69287,2.811,1.524,1.48822,3.2818,3.2005,5.10748,3.85132a2.98088,2.98088,0,0,0,.37409.66986C30.39569,56.29785,28.61755,58.1322,26.626,58.66016Zm17.09375.94336a6.87394,6.87394,0,0,1-4.1543,6.17089c-1.98828.91065-3.831.77295-4.55518.18164-.605-.49414.03565-2.94531.50391-4.73486.53955-2.06494,1.15826-4.445.81616-6.35516a2.985,2.985,0,0,0,.40558-.64789c1.91565.27881,4.38208.91589,5.829,2.38538A3.91916,3.91916,0,0,1,43.71973,59.60352ZM34.80127,41.27637a6.77608,6.77608,0,0,1,3.29785-.88233A7.3467,7.3467,0,0,1,42.22461,41.752c1.78955,1.25782,2.6001,2.918,2.4541,3.84229-.12158.77148-2.56152,1.4541-4.34326,1.95264-2.05371.575-4.41937,1.24041-5.89661,2.49749a1.9063,1.9063,0,0,0-.76269-.01166c-.72663-1.79589-1.42383-4.252-.88367-6.24658A3.92065,3.92065,0,0,1,34.80127,41.27637ZM71,57V71a5.00588,5.00588,0,0,1-5,5H16a5.00588,5.00588,0,0,1-5-5V35a5.00588,5.00588,0,0,1,5-5H57a1,1,0,0,1,0,2H16a3.00328,3.00328,0,0,0-3,3V71a3.00328,3.00328,0,0,0,3,3H66a3.00328,3.00328,0,0,0,3-3V57a1,1,0,0,1,2,0ZM57,53a3,3,0,1,0,3-3A3.00328,3.00328,0,0,0,57,53Zm4,0a1,1,0,1,1-1-1A1.0013,1.0013,0,0,1,61,53Zm.80029-8.82031a.99993.99993,0,1,1,.39746-1.96,10.96814,10.96814,0,0,1,8.57862,8.56494.999.999,0,0,1-.77881,1.17969.98506.98506,0,0,1-.20166.0205.9998.9998,0,0,1-.97852-.79931A8.97264,8.97264,0,0,0,61.80029,44.17969Zm18.1709,6.76562a1.0003,1.0003,0,0,1-.94385,1.05323Q78.99952,52,78.97168,52a1.00006,1.00006,0,0,1-.99756-.94531A16.96124,16.96124,0,0,0,61.94385,35.02588a1,1,0,0,1,.10937-1.99707A18.95847,18.95847,0,0,1,79.97119,50.94531ZM89,51a1,1,0,0,1-2,0A25.02817,25.02817,0,0,0,62,26a1,1,0,0,1,0-2A27.03077,27.03077,0,0,1,89,51Z"/><text x="0" y="115" fill="#000000" font-size="5px" font-weight="bold" font-family="'Helvetica Neue', Helvetica, Arial-Unicode, Arial, Sans-serif">Created by Path Lord</text><text x="0" y="120" fill="#000000" font-size="5px" font-weight="bold" font-family="'Helvetica Neue', Helvetica, Arial-Unicode, Arial, Sans-serif">from the Noun Project</text></svg>