<svg xmlns="http://www.w3.org/2000/svg" data-name="Layer 2" viewBox="0 0 100 125" x="0px" y="0px"><title>aArtboard 1</title><path d="M50,2A48,48,0,1,0,98,50,48,48,0,0,0,50,2ZM80.13574,51.77148a1.00026,1.00026,0,0,1-1.42041-.001L76,49.02637V84a1,1,0,0,1-1,1H26a1,1,0,0,1-1-1V49.65381l-3.72021,3.061a1,1,0,0,1-1.34229-.06543L15.501,48.21289a.99984.99984,0,0,1,.01318-1.42725L26,36.6792V22a1,1,0,0,1,1-1h7a1,1,0,0,1,1,1v4.11426L49.30225,11.66455a1.03136,1.03136,0,0,1,1.42187,0L84.58936,45.88232a1.00012,1.00012,0,0,1-.00147,1.40821Zm-45.4248-22.522A1.00022,1.00022,0,0,1,33,28.5459V23H28V37.104a.99981.99981,0,0,1-.30615.72022L17.63525,47.519,20.71,50.59375l4.65479-3.83008A1.00015,1.00015,0,0,1,27,47.53613V83H74V46.59424a1.00022,1.00022,0,0,1,1.71094-.70361l3.71679,3.75585,3.04248-3.062-32.457-32.79492ZM34,78a2,2,0,1,1,2-2A2,2,0,0,1,34,78Zm8.231-.313a1,1,0,0,1-1-1,8.23371,8.23371,0,0,0-8.22412-8.22461,1,1,0,0,1,0-2A10.236,10.236,0,0,1,43.231,76.687,1.00005,1.00005,0,0,1,42.231,77.687Zm7.37988,0a1,1,0,0,1-1-1,15.62177,15.62177,0,0,0-15.604-15.604,1,1,0,0,1,0-2,17.62374,17.62374,0,0,1,17.604,17.604A1,1,0,0,1,49.61084,77.687Zm8.37939-1a1,1,0,0,1-2,0,23.00973,23.00973,0,0,0-22.98339-22.9834,1,1,0,0,1,0-2A25.01171,25.01171,0,0,1,57.99023,76.687Z"/><text x="0" y="115" fill="#000000" font-size="5px" font-weight="bold" font-family="'Helvetica Neue', Helvetica, Arial-Unicode, Arial, Sans-serif">Created by Path Lord</text><text x="0" y="120" fill="#000000" font-size="5px" font-weight="bold" font-family="'Helvetica Neue', Helvetica, Arial-Unicode, Arial, Sans-serif">from the Noun Project</text></svg>