<svg xmlns="http://www.w3.org/2000/svg" data-name="Layer 2" viewBox="0 0 100 125" x="0px" y="0px"><title>Artboard 10</title><path d="M58.207,60V78.17139a2.95436,2.95436,0,0,1-1.85156,2.772,3.04377,3.04377,0,0,1-1.167.23584,2.95752,2.95752,0,0,1-2.10254-.88623L34.793,62H20.207a3.00328,3.00328,0,0,1-3-3V41a3.00328,3.00328,0,0,1,3-3H34.793l18.293-18.293A3,3,0,0,1,58.207,21.82861V40a1,1,0,0,1-2,0V21.82861a1.0002,1.0002,0,0,0-1.707-.70752L35.91406,39.707a.99927.99927,0,0,1-.707.293h-15a1.001,1.001,0,0,0-1,1V59a1.001,1.001,0,0,0,1,1h15a.99927.99927,0,0,1,.707.293L54.5,78.87891a.99992.99992,0,0,0,1.707-.70752V60a1,1,0,0,1,2,0Zm1.1211-12.12109a2.99891,2.99891,0,0,1,0,4.24218v.00049a3,3,0,1,1,0-4.24267ZM58.207,50a1,1,0,1,0-1.707.70654,1.00051,1.00051,0,0,0,1.41406.00049v-.00049A.98915.98915,0,0,0,58.207,50Zm3.9502-7.77832a.99962.99962,0,0,0,0,1.41406,9.01148,9.01148,0,0,1,0,12.72852.99989.99989,0,1,0,1.41406,1.41406,11.01252,11.01252,0,0,0,0-15.55664A.99962.99962,0,0,0,62.15723,42.22168Zm7.07031-5.65674A.99989.99989,0,1,0,67.81348,37.979a17.02037,17.02037,0,0,1,0,24.042.99989.99989,0,1,0,1.41406,1.41406A19.02141,19.02141,0,0,0,69.22754,36.56494Zm5.65723-5.65674a.9999.9999,0,0,0-1.41407,1.41407,25.02924,25.02924,0,0,1,0,35.35546.9999.9999,0,1,0,1.41407,1.41407A27.03031,27.03031,0,0,0,74.88477,30.9082Z"/><text x="0" y="115" fill="#000000" font-size="5px" font-weight="bold" font-family="'Helvetica Neue', Helvetica, Arial-Unicode, Arial, Sans-serif">Created by Path Lord</text><text x="0" y="120" fill="#000000" font-size="5px" font-weight="bold" font-family="'Helvetica Neue', Helvetica, Arial-Unicode, Arial, Sans-serif">from the Noun Project</text></svg>