<svg xmlns="http://www.w3.org/2000/svg" data-name="Layer 2" viewBox="0 0 100 125" x="0px" y="0px"><title>aArtboard 11</title><path d="M54.44043,23.272a25.3788,25.3788,0,0,0-5.91162,11.41748,30.33685,30.33685,0,0,0-.22522,12.35907c-.02271.01306-.04517.02655-.06763.04023A17.81155,17.81155,0,0,1,43.44678,30.0542a11.49532,11.49532,0,0,1,4.96386-7.04932,7.29574,7.29574,0,0,1,3.7544-1.05664,7.84741,7.84741,0,0,1,1.9873.26367.61454.61454,0,0,1,.44336.43409A.638.638,0,0,1,54.44043,23.272Zm10.0791,57.57324a.61329.61329,0,1,0,.61328.61329A.61371.61371,0,0,0,64.51953,80.84521Zm-12.8219-27.886a30.3447,30.3447,0,0,1-.22644,12.35138A25.3787,25.3787,0,0,1,45.55957,76.728a.638.638,0,0,0-.15527.626.61454.61454,0,0,0,.44336.43409,7.304,7.304,0,0,0,5.74218-.79346,11.49155,11.49155,0,0,0,4.96289-7.04883,17.80991,17.80991,0,0,0-4.78466-17.03027C51.74445,52.92987,51.7215,52.94537,51.69763,52.95917ZM58.88184,47.773a26.22551,26.22551,0,0,1,6.42871.75586A25.3788,25.3788,0,0,1,76.728,54.44043a.63682.63682,0,0,0,.626.15527.61454.61454,0,0,0,.43409-.44336,7.29593,7.29593,0,0,0-.79346-5.74218,11.49155,11.49155,0,0,0-7.04883-4.96289A17.81616,17.81616,0,0,0,52.91119,48.236c.01374.02265.02729.04523.04047.06812A34.58591,34.58591,0,0,1,58.88184,47.773ZM98,50A48,48,0,1,1,50,2,48,48,0,0,1,98,50ZM59.08936,81.82324a1.00241,1.00241,0,0,0-1.21436-.7251A32.0764,32.0764,0,1,1,82.07178,50a31.85011,31.85011,0,0,1-2.65967,12.80957,1,1,0,0,0,1.833.79981A34.07745,34.07745,0,1,0,50,84.07178a34.21278,34.21278,0,0,0,8.36426-1.03418A1.0002,1.0002,0,0,0,59.08936,81.82324ZM53.0813,51.44946a3.4052,3.4052,0,0,0,.29907-.93139c.013-.08472.0072-.16864.01392-.25324a28.37451,28.37451,0,0,1,11.42407.20246,23.39145,23.39145,0,0,1,10.53271,5.42382,2.627,2.627,0,0,0,1.81592.73194,2.67261,2.67261,0,0,0,.73584-.104,2.60115,2.60115,0,0,0,1.81983-1.86084A9.347,9.347,0,0,0,78.71729,47.394a13.525,13.525,0,0,0-8.2793-5.88525c-9.07886-2.30512-15.72473,2.30664-18.989,5.40973a3.40692,3.40692,0,0,0-.931-.29889c-.08368-.01282-.16645-.007-.24994-.01367a28.44134,28.44134,0,0,1,.19916-11.42432,23.3915,23.3915,0,0,1,5.42382-10.53271,2.63678,2.63678,0,0,0-1.23291-4.37159A9.35171,9.35171,0,0,0,47.394,21.28271,13.52615,13.52615,0,0,0,41.5083,29.562c-2.30511,9.07764,2.30725,15.72382,5.4104,18.98847a3.40692,3.40692,0,0,0-.29907.93145c-.01294.08442-.00714.16791-.01386.2522a28.39794,28.39794,0,0,1-11.42413-.20142,23.3915,23.3915,0,0,1-10.53271-5.42382,2.63678,2.63678,0,0,0-4.37159,1.23291A9.347,9.347,0,0,0,21.28271,52.606a13.525,13.525,0,0,0,8.2793,5.88525,19.67527,19.67527,0,0,0,4.86035.62256,20.7202,20.7202,0,0,0,14.12409-6.03442,3.40557,3.40557,0,0,0,.93548.301c.08478.01294.169.01276.25342.01953a28.40032,28.40032,0,0,1-.20264,11.41846,23.39145,23.39145,0,0,1-5.42382,10.53271,2.63678,2.63678,0,0,0,1.23291,4.37159,9.7696,9.7696,0,0,0,2.478.32519A9.34082,9.34082,0,0,0,52.606,78.71729a13.525,13.525,0,0,0,5.88525-8.2793C60.797,61.36029,56.18451,54.71405,53.0813,51.44946Zm14.05151,30.009a2.61328,2.61328,0,1,0-2.61328,2.61328A2.61631,2.61631,0,0,0,67.13281,81.4585Zm5.64649.80664a9.07653,9.07653,0,0,0-9.06641-9.06592,1,1,0,1,0,0,2,7.07423,7.07423,0,0,1,7.06641,7.06592,1,1,0,0,0,2,0Zm6.45263,0a15.53675,15.53675,0,0,0-15.519-15.51905,1,1,0,0,0,0,2,13.53415,13.53415,0,0,1,13.519,13.51905,1,1,0,0,0,2,0Zm6.26514-2.89063A22.02038,22.02038,0,0,0,63.71289,60.293a1,1,0,0,0,0,2A20.01406,20.01406,0,0,1,83.51367,79.63525a1.00034,1.00034,0,0,0,.99024.86963,1.09875,1.09875,0,0,0,.13183-.0083A1.001,1.001,0,0,0,85.49707,79.37451ZM34.68945,51.47119A25.3787,25.3787,0,0,1,23.272,45.55957a.62742.62742,0,0,0-.44238-.18066.67216.67216,0,0,0-.18359.02539.61454.61454,0,0,0-.43409.44336,7.29593,7.29593,0,0,0,.79346,5.74218,11.49155,11.49155,0,0,0,7.04883,4.96289A17.806,17.806,0,0,0,47.08881,51.764c-.01374-.02259-.02723-.04517-.04041-.068A30.345,30.345,0,0,1,34.68945,51.47119Z"/><text x="0" y="115" fill="#000000" font-size="5px" font-weight="bold" font-family="'Helvetica Neue', Helvetica, Arial-Unicode, Arial, Sans-serif">Created by Path Lord</text><text x="0" y="120" fill="#000000" font-size="5px" font-weight="bold" font-family="'Helvetica Neue', Helvetica, Arial-Unicode, Arial, Sans-serif">from the Noun Project</text></svg>