<svg xmlns="http://www.w3.org/2000/svg" data-name="Layer 2" viewBox="0 0 100 125" x="0px" y="0px"><title>Artboard 18</title><path d="M61.5,77.5835a.99974.99974,0,0,0-1,1V85a1.001,1.001,0,0,1-1,1h-32a1.001,1.001,0,0,1-1-1V37a1.001,1.001,0,0,1,1-1h32a1.001,1.001,0,0,1,1,1V49.0835a1,1,0,0,0,2,0V37a2.97711,2.97711,0,0,0-.78027-2A2.97711,2.97711,0,0,0,62.5,33V15a3.00328,3.00328,0,0,0-3-3h-32a3.00328,3.00328,0,0,0-3,3V33a2.97711,2.97711,0,0,0,.78027,2A2.97711,2.97711,0,0,0,24.5,37V85a3.00328,3.00328,0,0,0,3,3h32a3.00328,3.00328,0,0,0,3-3V78.5835A.99974.99974,0,0,0,61.5,77.5835ZM26.5,15a1.001,1.001,0,0,1,1-1h32a1.001,1.001,0,0,1,1,1V33a1.001,1.001,0,0,1-1,1h-32a1.001,1.001,0,0,1-1-1Zm4,14h3a.99974.99974,0,0,0,1-1V22a.99974.99974,0,0,0-1-1h-3a.99974.99974,0,0,0-1,1v6A.99974.99974,0,0,0,30.5,29Zm1-6h1v4h-1Zm-1,16a.99974.99974,0,0,0-1,1V54a.99974.99974,0,0,0,1,1h3a.99974.99974,0,0,0,1-1V40a.99974.99974,0,0,0-1-1Zm2,14h-1V41h1Zm14,22a3,3,0,1,0,3-3A3.00328,3.00328,0,0,0,46.5,75Zm4,0a1,1,0,1,1-1-1A1.001,1.001,0,0,1,50.5,75Zm-2-8a1,1,0,0,1,0-2,11.01245,11.01245,0,0,1,11,11,1,1,0,0,1-2,0A9.01016,9.01016,0,0,0,48.5,67Zm19,9a1,1,0,0,1-2,0,17.019,17.019,0,0,0-17-17,1,1,0,0,1,0-2A19.02162,19.02162,0,0,1,67.5,76Zm8,0a1,1,0,0,1-2,0,25.02817,25.02817,0,0,0-25-25,1,1,0,0,1,0-2A27.03077,27.03077,0,0,1,75.5,76Z"/><text x="0" y="115" fill="#000000" font-size="5px" font-weight="bold" font-family="'Helvetica Neue', Helvetica, Arial-Unicode, Arial, Sans-serif">Created by Path Lord</text><text x="0" y="120" fill="#000000" font-size="5px" font-weight="bold" font-family="'Helvetica Neue', Helvetica, Arial-Unicode, Arial, Sans-serif">from the Noun Project</text></svg>