<svg xmlns="http://www.w3.org/2000/svg" data-name="Layer 2" viewBox="0 0 100 125" x="0px" y="0px"><title>aArtboard 3</title><path d="M51,73.75a3,3,0,1,1-3,3A3.00328,3.00328,0,0,1,51,73.75Zm34.5-23a13.01442,13.01442,0,0,1-13,13h-45a12.99245,12.99245,0,0,1-1.75244-25.86719,1.00084,1.00084,0,0,0,.81738-.68261,11.47009,11.47009,0,0,1,14.61133-7.33887,1.00132,1.00132,0,0,0,1.22949-.53223A15.49192,15.49192,0,0,1,72,35.75c0,.23877-.01709.47363-.0332.7085l-.0166.25244a1,1,0,0,0,.9663,1.061A12.93432,12.93432,0,0,1,85.5,50.75Zm-43.125,8a2,2,0,1,0-2,2A2,2,0,0,0,42.375,58.75Zm8,1a11.01245,11.01245,0,0,0-11-11,1,1,0,0,0,0,2,9.01047,9.01047,0,0,1,9,9,1,1,0,0,0,2,0Zm8,0a19.02162,19.02162,0,0,0-19-19,1,1,0,0,0,0,2,17.019,17.019,0,0,1,17,17,1,1,0,0,0,2,0Zm8,0a27.03077,27.03077,0,0,0-27-27,1,1,0,0,0,0,2,25.02817,25.02817,0,0,1,25,25,1,1,0,0,0,2,0ZM98,50A48,48,0,1,1,50,2,48,48,0,0,1,98,50Zm-10.5.75A14.91853,14.91853,0,0,0,73.99951,35.83887C74,35.80957,74,35.77979,74,35.75a17.49117,17.49117,0,0,0-33.02979-8.03955,13.46538,13.46538,0,0,0-16.10253,8.28564A14.99276,14.99276,0,0,0,27.5,65.75H50v6.10107A5.01458,5.01458,0,0,0,46.10107,75.75H25a1,1,0,0,0,0,2H46.10107a4.99994,4.99994,0,0,0,9.79786,0H77a1,1,0,0,0,0-2H55.89893A5.01458,5.01458,0,0,0,52,71.85107V65.75H72.5A15.017,15.017,0,0,0,87.5,50.75Z"/><text x="0" y="115" fill="#000000" font-size="5px" font-weight="bold" font-family="'Helvetica Neue', Helvetica, Arial-Unicode, Arial, Sans-serif">Created by Path Lord</text><text x="0" y="120" fill="#000000" font-size="5px" font-weight="bold" font-family="'Helvetica Neue', Helvetica, Arial-Unicode, Arial, Sans-serif">from the Noun Project</text></svg>