<svg xmlns="http://www.w3.org/2000/svg" data-name="Layer 2" viewBox="0 0 100 125" x="0px" y="0px"><title>Artboard 15</title><path d="M55.39307,51.91943a6.71411,6.71411,0,1,0-6.71436-6.71386A6.72133,6.72133,0,0,0,55.39307,51.91943Zm0-11.42822a4.71411,4.71411,0,1,1-4.71436,4.71436A4.71945,4.71945,0,0,1,55.39307,40.49121Zm-2.5,4.71436a1,1,0,0,1,1-1h.5v-.5a1,1,0,0,1,2,0v.5h.5a1,1,0,0,1,0,2h-.5v.5a1,1,0,0,1-2,0v-.5h-.5A1.00005,1.00005,0,0,1,52.89307,45.20557ZM77.96436,70.91943H59.67871a3.2896,3.2896,0,0,1-3.28564-3.28564V60.49121h4.71386A12.443,12.443,0,0,0,73.53564,48.0625V26.63379a2.43114,2.43114,0,0,0-2.42871-2.42822H65.39307v-11a3,3,0,1,0-6,0v11h-8v-11a3,3,0,0,0-6,0v11H39.67871A2.43115,2.43115,0,0,0,37.25,26.63379v20a1,1,0,1,0,2,0v-20a.42886.42886,0,0,1,.42871-.42822H71.10693a.42886.42886,0,0,1,.42871.42822V48.0625A10.44042,10.44042,0,0,1,61.10693,58.49121H49.67871a10.567,10.567,0,0,1-1.667-.13232.9999.9999,0,0,0-.31641,1.97461,12.58563,12.58563,0,0,0,1.9834.15771h4.71436v7.14258a5.29158,5.29158,0,0,0,5.28564,5.28564H77.96436a3.28589,3.28589,0,0,1,0,6.57178H39.04a5.296,5.296,0,0,0-5.29,5.29v4.01318a1,1,0,0,0,2,0V84.78125a3.294,3.294,0,0,1,3.29-3.29H77.96436a5.28589,5.28589,0,0,0,0-10.57178ZM61.39307,13.20557a1,1,0,0,1,2,0v11h-2Zm-14,0a1,1,0,0,1,2,0v11h-2ZM39.75,75.41943a3,3,0,1,0,3-3A3.00328,3.00328,0,0,0,39.75,75.41943Zm4,0a1,1,0,1,1-1-1A1.0013,1.0013,0,0,1,43.75,75.41943Zm-10,2a1,1,0,0,1-1-1,11.01245,11.01245,0,0,1,11-11,1,1,0,0,1,0,2,9.01047,9.01047,0,0,0-9,9A1,1,0,0,1,33.75,77.41943Zm10-18a17.019,17.019,0,0,0-17,17,1,1,0,0,1-2,0,19.02162,19.02162,0,0,1,19-19,1,1,0,0,1,0,2Zm-25,17a1,1,0,0,1-2,0,27.03078,27.03078,0,0,1,27-27,1,1,0,0,1,0,2A25.02817,25.02817,0,0,0,18.75,76.41943Z"/><text x="0" y="115" fill="#000000" font-size="5px" font-weight="bold" font-family="'Helvetica Neue', Helvetica, Arial-Unicode, Arial, Sans-serif">Created by Path Lord</text><text x="0" y="120" fill="#000000" font-size="5px" font-weight="bold" font-family="'Helvetica Neue', Helvetica, Arial-Unicode, Arial, Sans-serif">from the Noun Project</text></svg>