<svg xmlns="http://www.w3.org/2000/svg" data-name="Layer 2" viewBox="0 0 100 125" x="0px" y="0px"><title>aArtboard 20</title><path d="M60.24219,64.5a1,1,0,1,1-1-1A1.001,1.001,0,0,1,60.24219,64.5ZM44.7334,59l.86621-13H42.73828l.86621,13ZM52.669,31.5a8.5,8.5,0,1,1-8.5-8.5A8.50982,8.50982,0,0,1,52.669,31.5Zm-5,0a3.5,3.5,0,1,0-3.5,3.5A3.50425,3.50425,0,0,0,47.669,31.5Zm-3.5,44.02832a4.625,4.625,0,1,0-4.625-4.625A4.63048,4.63048,0,0,0,44.169,75.52832ZM98,50A48,48,0,1,1,50,2,48,48,0,0,1,98,50ZM60.02832,71.78613a1.001,1.001,0,0,0-.9707-1.02881l-.03028-.00048a1.001,1.001,0,0,0-.999.9707l-.27441,9.33154A1.98885,1.98885,0,0,1,55.75586,83H32.582a1.9897,1.9897,0,0,1-1.999-1.94092l-1.82324-62A1.99823,1.99823,0,0,1,30.75781,17H57.5791a1.99986,1.99986,0,0,1,1.999,2.05908L59.13867,33.9707a1.00043,1.00043,0,0,0,2,.0586l.43946-14.91211A4.00046,4.00046,0,0,0,57.5791,15H30.75781a4.00042,4.00042,0,0,0-3.998,4.11768l1.82324,62A3.98163,3.98163,0,0,0,32.582,85H55.75586a3.98079,3.98079,0,0,0,3.998-3.88232ZM37.544,70.90332a6.625,6.625,0,1,0,6.625-6.625A6.63245,6.63245,0,0,0,37.544,70.90332Zm4.127-10.83691A1.00043,1.00043,0,0,0,42.669,61h3a1.00042,1.00042,0,0,0,.998-.93359l1-15A1.00016,1.00016,0,0,0,46.669,44h-5a1.00016,1.00016,0,0,0-.998,1.06641ZM54.669,31.5A10.5,10.5,0,1,0,44.169,42,10.5118,10.5118,0,0,0,54.669,31.5Zm7.57324,33a3,3,0,1,0-3,3A3.00328,3.00328,0,0,0,62.24219,64.5Zm7,1a11.01245,11.01245,0,0,0-11-11,1,1,0,1,0,0,2,9.01016,9.01016,0,0,1,9,9,1,1,0,0,0,2,0Zm8,0a19.02162,19.02162,0,0,0-19-19,1,1,0,1,0,0,2,17.019,17.019,0,0,1,17,17,1,1,0,0,0,2,0Zm8,0a27.03078,27.03078,0,0,0-27-27,1,1,0,1,0,0,2,25.02817,25.02817,0,0,1,25,25,1,1,0,0,0,2,0ZM44.169,30a1.5,1.5,0,1,0,1.5,1.5A1.50164,1.50164,0,0,0,44.169,30Z"/><text x="0" y="115" fill="#000000" font-size="5px" font-weight="bold" font-family="'Helvetica Neue', Helvetica, Arial-Unicode, Arial, Sans-serif">Created by Path Lord</text><text x="0" y="120" fill="#000000" font-size="5px" font-weight="bold" font-family="'Helvetica Neue', Helvetica, Arial-Unicode, Arial, Sans-serif">from the Noun Project</text></svg>