<svg xmlns="http://www.w3.org/2000/svg" data-name="Layer 2" viewBox="0 0 100 125" x="0px" y="0px"><title>Artboard 8</title><path d="M86,21H14a.99974.99974,0,0,0-1,1V69a.99974.99974,0,0,0,1,1H47.5v4H41.708a29.56518,29.56518,0,0,0-13.15528,3.10547A1,1,0,0,0,29,79H71a1,1,0,0,0,.44727-1.89453A29.56518,29.56518,0,0,0,58.292,74H52.5V70H86a.99974.99974,0,0,0,1-1V22A.99974.99974,0,0,0,86,21Zm-1,2V65H15V23ZM65.61523,77H34.38477A27.48771,27.48771,0,0,1,41.708,76H58.292A27.48771,27.48771,0,0,1,65.61523,77ZM50.5,74h-1V70h1ZM15,68V67H85v1Zm9.5-7.75a3,3,0,1,0-3-3A3.00328,3.00328,0,0,0,24.5,60.25Zm0-4a1,1,0,1,1-1,1A1.001,1.001,0,0,1,24.5,56.25Zm-2-8a.99974.99974,0,0,1,1-1,11.01245,11.01245,0,0,1,11,11,1,1,0,0,1-2,0,9.01016,9.01016,0,0,0-9-9A.99974.99974,0,0,1,22.5,48.25Zm0-8a.99974.99974,0,0,1,1-1,19.02162,19.02162,0,0,1,19,19,1,1,0,0,1-2,0,17.019,17.019,0,0,0-17-17A.99974.99974,0,0,1,22.5,40.25Zm0-8a.99974.99974,0,0,1,1-1,27.03077,27.03077,0,0,1,27,27,1,1,0,0,1-2,0,25.02817,25.02817,0,0,0-25-25A.99974.99974,0,0,1,22.5,32.25Z"/><text x="0" y="115" fill="#000000" font-size="5px" font-weight="bold" font-family="'Helvetica Neue', Helvetica, Arial-Unicode, Arial, Sans-serif">Created by Path Lord</text><text x="0" y="120" fill="#000000" font-size="5px" font-weight="bold" font-family="'Helvetica Neue', Helvetica, Arial-Unicode, Arial, Sans-serif">from the Noun Project</text></svg>