<svg xmlns="http://www.w3.org/2000/svg" data-name="Layer 2" viewBox="0 0 100 125" x="0px" y="0px"><title>Artboard 4</title><path d="M92.69482,51.8291a6.50753,6.50753,0,0,0-6.5,6.5v5.773H73.36816a1.00413,1.00413,0,0,1-.86621-.5L67.40186,54.77,84.57373,44.856a3.75,3.75,0,0,0-3.75-6.49512L37.14014,63.58154a3.75018,3.75018,0,0,0,3.75,6.49561l20.0166-11.55664,5.53369,9.582a7.01954,7.01954,0,0,0,6.062,3.49951H86.19482v5.77246a6.50753,6.50753,0,0,0,6.5,6.5,1,1,0,0,0,1-1V52.8291A1.00005,1.00005,0,0,0,92.69482,51.8291Zm-1,29.9336a4.50845,4.50845,0,0,1-3.5-4.38819V70.60205a1,1,0,0,0-1-1H72.50244a5.01536,5.01536,0,0,1-4.33008-2.49951L62.13818,56.6543a1,1,0,0,0-1.36572-.36621L39.89014,68.34473a1.74986,1.74986,0,1,1-1.75-3.03077L81.82373,40.09277a1.74986,1.74986,0,1,1,1.75,3.03077L65.53564,53.53809a1.00009,1.00009,0,0,0-.36572,1.36621l5.60059,9.69824a3.00871,3.00871,0,0,0,2.59765,1.49951H87.19482a1,1,0,0,0,1-1v-6.773a4.50844,4.50844,0,0,1,3.5-4.38818ZM26.51025,56.62744a3.75,3.75,0,0,0-6.49511,3.75l6.019,10.42627h.00049a3.75,3.75,0,0,0,6.49512-3.75Zm4.46241,12.7544a1.75041,1.75041,0,0,1-3.20606.42187L21.74707,59.37744a1.74986,1.74986,0,1,1,3.03076-1.75l6.02,10.42627A1.73988,1.73988,0,0,1,30.97266,69.38184ZM20.60449,49.481l16.4751,11.123a1.00011,1.00011,0,0,0,1.05957.0376L85.20557,33.46826a1.00081,1.00081,0,0,0,.36621-1.36621L76.63623,16.62549A.9999.9999,0,0,0,75.27,16.25928l-54.606,31.52685a.99988.99988,0,0,0-.05957,1.69483ZM75.40381,18.4917l7.93555,13.74414L37.68066,58.59668,23.04932,48.71875ZM19.61719,68.71289,11.3374,73.49316a1.00016,1.00016,0,0,1-1-1.73242l8.27979-4.78027a1.00016,1.00016,0,1,1,1,1.73242Zm2.49072,2.4585a1,1,0,0,1,.17139,1.40381l-5.87549,7.50585a1,1,0,0,1-1.5752-1.23242l5.87549-7.50586A1.00019,1.00019,0,0,1,22.10791,71.17139Zm-5.2251-6.44727-9.4375,1.33545a1.00083,1.00083,0,0,1-1.13037-.8501A1.00043,1.00043,0,0,1,7.165,64.0791l9.4375-1.33545a1.0001,1.0001,0,0,1,.28027,1.98047ZM50.34375,37.74121A1.00031,1.00031,0,0,1,50.71,36.375L73.5,23.21729a1.00016,1.00016,0,1,1,1,1.73242L51.71,38.10742a1.0006,1.0006,0,0,1-1.36621-.36621Z"/><text x="0" y="115" fill="#000000" font-size="5px" font-weight="bold" font-family="'Helvetica Neue', Helvetica, Arial-Unicode, Arial, Sans-serif">Created by Path Lord</text><text x="0" y="120" fill="#000000" font-size="5px" font-weight="bold" font-family="'Helvetica Neue', Helvetica, Arial-Unicode, Arial, Sans-serif">from the Noun Project</text></svg>