<svg xmlns="http://www.w3.org/2000/svg" data-name="Layer 2" viewBox="0 0 100 125" x="0px" y="0px"><title>aArtboard 17</title><path d="M47.5,72a1,1,0,1,1-1,1A1.001,1.001,0,0,1,47.5,72ZM63.71,16.25l4.52442,19H62.36761l-2.267-15.87158a1.00031,1.00031,0,0,0-1.98047.2832L60.34668,35.25h-21.581l4.52441-19ZM48.81152,18.3916a1.00031,1.00031,0,0,0-1.98047-.2832L44.793,32.375a.99987.99987,0,0,0,.84863,1.13135,1.01137,1.01137,0,0,0,.14258.01025,1.00029,1.00029,0,0,0,.98926-.8584ZM54.5,18.25a1,1,0,0,0-2,0v13a1,1,0,0,0,2,0ZM98,50A48,48,0,1,1,50,2,48,48,0,0,1,98,50ZM23.5,74a25.02817,25.02817,0,0,1,25-25,1,1,0,0,0,0-2,27.03077,27.03077,0,0,0-27,27,1,1,0,0,0,2,0Zm25-17a1,1,0,0,0,0-2,19.02162,19.02162,0,0,0-19,19,1,1,0,0,0,2,0A17.019,17.019,0,0,1,48.5,57Zm-1,13a3,3,0,1,0,3,3A3.00328,3.00328,0,0,0,47.5,70Zm1-5a1,1,0,0,0,0-2,11.01245,11.01245,0,0,0-11,11,1,1,0,0,0,2,0A9.01016,9.01016,0,0,1,48.5,65ZM62.54883,89.91406A18.36278,18.36278,0,0,0,54.5,87.28668V46.25a1,1,0,0,0-2,0V87.28668a18.36278,18.36278,0,0,0-8.04883,2.62738.99994.99994,0,0,0,1.09668,1.67237A16.34679,16.34679,0,0,1,53.5,89.25a16.34679,16.34679,0,0,1,7.95215,2.33643.99994.99994,0,0,0,1.09668-1.67237Zm7.92383-53.89551-5-21A1.00005,1.00005,0,0,0,64.5,14.25h-10v-3a1,1,0,0,0-2,0v3h-10a1.00005,1.00005,0,0,0-.97266.76855l-5,21A.99942.99942,0,0,0,37.5,37.25h15v6a1,1,0,0,0,2,0v-6h15a.99942.99942,0,0,0,.97266-1.23145Z"/><text x="0" y="115" fill="#000000" font-size="5px" font-weight="bold" font-family="'Helvetica Neue', Helvetica, Arial-Unicode, Arial, Sans-serif">Created by Path Lord</text><text x="0" y="120" fill="#000000" font-size="5px" font-weight="bold" font-family="'Helvetica Neue', Helvetica, Arial-Unicode, Arial, Sans-serif">from the Noun Project</text></svg>