<svg xmlns="http://www.w3.org/2000/svg" data-name="Layer 2" viewBox="0 0 100 125" x="0px" y="0px"><title>aArtboard 10</title><path d="M57.91406,49.29346a.99845.99845,0,0,1,0,1.41308V50.707A1.00051,1.00051,0,0,1,56.5,50.70654a.99954.99954,0,0,1,1.41406-1.41308ZM98,50A48,48,0,1,1,50,2,48,48,0,0,1,98,50ZM58.207,60a1,1,0,0,0-2,0V78.17139a.99992.99992,0,0,1-1.707.70752L35.91406,60.293A.99927.99927,0,0,0,35.207,60h-15a1.001,1.001,0,0,1-1-1V41a1.001,1.001,0,0,1,1-1h15a.99927.99927,0,0,0,.707-.293L54.5,21.12109a1.0002,1.0002,0,0,1,1.707.70752V40a1,1,0,0,0,2,0V21.82861A3,3,0,0,0,53.08594,19.707L34.793,38H20.207a3.00328,3.00328,0,0,0-3,3V59a3.00328,3.00328,0,0,0,3,3H34.793l18.293,18.293a2.95752,2.95752,0,0,0,2.10254.88623,3.04377,3.04377,0,0,0,1.167-.23584,2.95436,2.95436,0,0,0,1.85156-2.772Zm2-10a2.99744,2.99744,0,1,0-.8789,2.12158v-.00049A2.98069,2.98069,0,0,0,60.207,50Zm3.36426-7.77832a.99989.99989,0,0,0-1.41406,1.41406,9.01148,9.01148,0,0,1,0,12.72852.99989.99989,0,1,0,1.41406,1.41406A11.01252,11.01252,0,0,0,63.57129,42.22168Zm5.65625,21.21338a19.02141,19.02141,0,0,0,0-26.87012A.99989.99989,0,1,0,67.81348,37.979a17.02037,17.02037,0,0,1,0,24.042.99989.99989,0,1,0,1.41406,1.41406ZM74.88477,30.9082a.9999.9999,0,0,0-1.41407,1.41407,25.02924,25.02924,0,0,1,0,35.35546.9999.9999,0,1,0,1.41407,1.41407A27.03031,27.03031,0,0,0,74.88477,30.9082Z"/><text x="0" y="115" fill="#000000" font-size="5px" font-weight="bold" font-family="'Helvetica Neue', Helvetica, Arial-Unicode, Arial, Sans-serif">Created by Path Lord</text><text x="0" y="120" fill="#000000" font-size="5px" font-weight="bold" font-family="'Helvetica Neue', Helvetica, Arial-Unicode, Arial, Sans-serif">from the Noun Project</text></svg>