<svg xmlns="http://www.w3.org/2000/svg" data-name="Layer 2" viewBox="0 0 100 125" x="0px" y="0px"><title>Artboard 14</title><path d="M77.93749,50.07666H59.46143a48.46892,48.46892,0,0,0,.86315-8.19513A7.85343,7.85343,0,0,0,63.49951,44.042a8.236,8.236,0,0,0,2.81348.47656c2.66943,0,5.7334-1.147,9.14795-3.42968a1.00044,1.00044,0,0,0,.19189-1.49561c-3.74365-4.2124-7.38623-6.18115-10.83056-5.87451a8.19309,8.19309,0,0,0-4.71222,2.12769,46.38242,46.38242,0,0,0-2.00458-9.82087,8.7246,8.7246,0,0,0,2.19971-6.55731c-.39063-3.43457-3.06592-6.60156-7.95118-9.41162a1,1,0,0,0-1.42529.49121c-2.11622,5.22363-2.272,9.36572-.46289,12.312A8.71825,8.71825,0,0,0,56.21,26.66333q.56123,1.747.94916,3.462a7.943,7.943,0,0,0-4.00244-1.44513c-3.44385-.23584-7.04785,1.81689-10.69776,6.11181a.99979.99979,0,0,0,.22413,1.49072c3.375,2.1504,6.39257,3.23,9.01416,3.23a8.30372,8.30372,0,0,0,3.00976-.54053,7.954,7.954,0,0,0,3.42664-2.59571,49.334,49.334,0,0,1-.71906,13.7002H39.93749a1.00005,1.00005,0,0,0-1,1v7.125a1.00005,1.00005,0,0,0,1,1H73.25275l-3.33136,28.875H52.43749a1,1,0,0,0,0,2h18.375a1.00066,1.00066,0,0,0,.99366-.88525l3.46033-29.98975h2.671a1,1,0,0,0,1-1v-7.125A1,1,0,0,0,77.93749,50.07666ZM53.9873,37.106c-2.38916.92431-5.48974.2832-9.228-1.89844,2.92138-3.17725,5.6875-4.707,8.23926-4.53369A6.80418,6.80418,0,0,1,57.63428,33.271,6.74621,6.74621,0,0,1,53.9873,37.106Zm11.01709-1.39551c2.55469-.23438,5.3584,1.22949,8.35743,4.34912-3.67823,2.25732-6.75782,2.96729-9.16455,2.10791a6.8048,6.8048,0,0,1-3.74952-3.76562A6.74841,6.74841,0,0,1,65.00439,35.71045ZM52.15967,21.79639c-1.3291-2.18262-1.26026-5.3418.20263-9.40186,3.6543,2.29639,5.65528,4.74219,5.95362,7.27979a6.80411,6.80411,0,0,1-1.71045,5.02783A6.80316,6.80316,0,0,1,52.15967,21.79639ZM76.93749,57.20166h-36v-5.125h36Zm-29.875,26.875a3,3,0,1,0,3,3A3.00328,3.00328,0,0,0,47.06249,84.07666Zm0,4a1,1,0,1,1,1-1A1.00131,1.00131,0,0,1,47.06249,88.07666Zm1-9a9.01048,9.01048,0,0,0-9,9,1,1,0,0,1-2,0,11.01245,11.01245,0,0,1,11-11,1,1,0,0,1,0,2Zm0-8a17.019,17.019,0,0,0-17,17,1,1,0,0,1-2,0,19.02162,19.02162,0,0,1,19-19,1,1,0,0,1,0,2Zm-25,17a1,1,0,0,1-2,0,27.03078,27.03078,0,0,1,27-27,1,1,0,0,1,0,2A25.02817,25.02817,0,0,0,23.06249,88.07666Z"/><text x="0" y="115" fill="#000000" font-size="5px" font-weight="bold" font-family="'Helvetica Neue', Helvetica, Arial-Unicode, Arial, Sans-serif">Created by Path Lord</text><text x="0" y="120" fill="#000000" font-size="5px" font-weight="bold" font-family="'Helvetica Neue', Helvetica, Arial-Unicode, Arial, Sans-serif">from the Noun Project</text></svg>