<svg xmlns="http://www.w3.org/2000/svg" data-name="Layer 2" viewBox="0 0 100 125" x="0px" y="0px"><title>Artboard 17</title><path d="M74.47266,35.01855l-5-21A1.00005,1.00005,0,0,0,68.5,13.25h-10v-3a1,1,0,0,0-2,0v3h-10a1.00005,1.00005,0,0,0-.97266.76855l-5,21A.99942.99942,0,0,0,41.5,36.25h15v6a1,1,0,0,0,2,0v-6h15a.99942.99942,0,0,0,.97266-1.23145ZM66.36761,34.25l-2.267-15.87158a1.00031,1.00031,0,0,0-1.98047.2832L64.34668,34.25H42.76563l4.52441-19H67.71l4.52442,19Zm.46833,56.04736a.99986.99986,0,0,1-1.38379.28907A16.34679,16.34679,0,0,0,57.5,88.25a16.34679,16.34679,0,0,0-7.95215,2.33643.99994.99994,0,0,1-1.09668-1.67237A18.36278,18.36278,0,0,1,56.5,86.28668V45.25a1,1,0,0,1,2,0V86.28668a18.36278,18.36278,0,0,1,8.04883,2.62738A.99933.99933,0,0,1,66.83594,90.29736ZM58.5,17.25v13a1,1,0,0,1-2,0v-13a1,1,0,0,1,2,0Zm-5.68848.1416L50.77344,31.6582a1.00029,1.00029,0,0,1-.98926.8584,1.01137,1.01137,0,0,1-.14258-.01025A.99987.99987,0,0,1,48.793,31.375l2.03808-14.2666a1.00031,1.00031,0,0,1,1.98047.2832ZM48.5,72a3,3,0,1,0,3-3A3.00328,3.00328,0,0,0,48.5,72Zm4,0a1,1,0,1,1-1-1A1.001,1.001,0,0,1,52.5,72Zm0-8a9.01016,9.01016,0,0,0-9,9,1,1,0,0,1-2,0,11.01245,11.01245,0,0,1,11-11,1,1,0,0,1,0,2Zm0-8a17.019,17.019,0,0,0-17,17,1,1,0,0,1-2,0,19.02162,19.02162,0,0,1,19-19,1,1,0,0,1,0,2Zm-25,17a1,1,0,0,1-2,0,27.03077,27.03077,0,0,1,27-27,1,1,0,0,1,0,2A25.02817,25.02817,0,0,0,27.5,73Z"/><text x="0" y="115" fill="#000000" font-size="5px" font-weight="bold" font-family="'Helvetica Neue', Helvetica, Arial-Unicode, Arial, Sans-serif">Created by Path Lord</text><text x="0" y="120" fill="#000000" font-size="5px" font-weight="bold" font-family="'Helvetica Neue', Helvetica, Arial-Unicode, Arial, Sans-serif">from the Noun Project</text></svg>