<svg xmlns="http://www.w3.org/2000/svg" data-name="Layer 2" viewBox="0 0 100 125" x="0px" y="0px"><title>aArtboard 4</title><path d="M82.32861,33.2168,74.395,19.47559,25.07715,46.7373l14.61572,9.86817ZM52.75342,34.35156l19.79-10.15771a.99995.99995,0,1,1,.91308,1.77929l-19.79,10.15772a1,1,0,0,1-.91308-1.7793ZM32.79785,66.05371a1.75007,1.75007,0,0,1-3.03125,1.75L23.74707,57.37744a1.74986,1.74986,0,1,1,3.03076-1.75ZM50,2A48,48,0,1,0,98,50,48,48,0,0,0,50,2ZM22.68018,45.77734l51.606-28.52685a1.00006,1.00006,0,0,1,1.3501.375l8.93555,15.47656a1.00079,1.00079,0,0,1-.38526,1.377L40.12012,58.65234a1.00022,1.00022,0,0,1-1.04053-.04834L22.60449,47.481a.99973.99973,0,0,1,.07569-1.70362ZM12.17969,62.6626a1.00042,1.00042,0,0,1,.8501-1.13037l5.57275-.78858a1.0001,1.0001,0,0,1,.28027,1.98047l-5.57275.78858a1.0009,1.0009,0,0,1-1.13037-.8501Zm2.54394,8.03027a1.00016,1.00016,0,0,1-1-1.73242l6.89356-3.98a1.00016,1.00016,0,1,1,1,1.73242Zm9.55567-.11767-3.54492,4.52832a1,1,0,0,1-1.5752-1.23243l3.54492-4.52832a1,1,0,0,1,1.5752,1.23243Zm10.625-2.67579a3.7505,3.7505,0,0,1-6.86963.9043h-.00049l-6.019-10.42627a3.75,3.75,0,0,1,6.49511-3.75l6.01954,10.42627A3.72472,3.72472,0,0,1,34.9043,67.89941Zm57.29052-3.79736H75.36816a3.00871,3.00871,0,0,1-2.59765-1.49951l-5.28272-9.13428a1.00043,1.00043,0,0,1,.38916-1.37988l14.72022-7.978a1.75012,1.75012,0,0,0-1.77344-3.01758L40.11963,63.3252a1.7502,1.7502,0,0,0,1.77051,3.01953l21.165-11.61133a1.00089,1.00089,0,0,1,1.34716.37695l5.77051,9.99219a5.014,5.014,0,0,0,4.32959,2.49951H89.19482a1,1,0,0,1,0,2H74.50244a7.01954,7.01954,0,0,1-6.062-3.49951l-5.28125-9.145L42.87109,68.08789a3.7501,3.7501,0,0,1-3.73095-6.50635l40.7041-22.23193A3.74974,3.74974,0,0,1,83.57373,45.856l-13.83984,7.501,4.76806,8.24463a1.00356,1.00356,0,0,0,.86621.50049H92.19482a1,1,0,0,1,0,2Z"/><text x="0" y="115" fill="#000000" font-size="5px" font-weight="bold" font-family="'Helvetica Neue', Helvetica, Arial-Unicode, Arial, Sans-serif">Created by Path Lord</text><text x="0" y="120" fill="#000000" font-size="5px" font-weight="bold" font-family="'Helvetica Neue', Helvetica, Arial-Unicode, Arial, Sans-serif">from the Noun Project</text></svg>