<svg xmlns="http://www.w3.org/2000/svg" data-name="Layer 2" viewBox="0 0 100 125" x="0px" y="0px"><title>aArtboard 15</title><path d="M41.75,73.41943a1,1,0,1,1-1,1A1.0013,1.0013,0,0,1,41.75,73.41943Zm5.64307-62.21386a1.0013,1.0013,0,0,0-1,1v11h2v-11A1.0013,1.0013,0,0,0,47.39307,11.20557Zm14,0a1.0013,1.0013,0,0,0-1,1v11h2v-11A1.0013,1.0013,0,0,0,61.39307,11.20557ZM98,50A48,48,0,1,1,50,2,48,48,0,0,1,98,50ZM17.75,75.41943a25.02817,25.02817,0,0,1,25-25,1,1,0,0,0,0-2,27.03078,27.03078,0,0,0-27,27,1,1,0,0,0,2,0Zm25-17a1,1,0,0,0,0-2,19.02162,19.02162,0,0,0-19,19,1,1,0,0,0,2,0A17.019,17.019,0,0,1,42.75,58.41943Zm-1,13a3,3,0,1,0,3,3A3.00328,3.00328,0,0,0,41.75,71.41943Zm-9,5a1,1,0,0,0,1-1,9.01047,9.01047,0,0,1,9-9,1,1,0,0,0,0-2,11.01245,11.01245,0,0,0-11,11A1,1,0,0,0,32.75,76.41943Zm49.5-1.21386a5.292,5.292,0,0,0-5.28564-5.28614H58.67871a3.2896,3.2896,0,0,1-3.28564-3.28564V59.49121h4.71386A12.443,12.443,0,0,0,72.53564,47.0625V25.63379a2.43114,2.43114,0,0,0-2.42871-2.42822H64.39307v-11a3,3,0,1,0-6,0v11h-8v-11a3,3,0,0,0-6,0v11H38.67871A2.43115,2.43115,0,0,0,36.25,25.63379v20a1,1,0,1,0,2,0v-20a.42886.42886,0,0,1,.42871-.42822H70.10693a.42886.42886,0,0,1,.42871.42822V47.0625A10.44042,10.44042,0,0,1,60.10693,57.49121H48.67871a10.567,10.567,0,0,1-1.667-.13232.9999.9999,0,0,0-.31641,1.97461,12.58563,12.58563,0,0,0,1.9834.15771h4.71436v7.14258a5.29158,5.29158,0,0,0,5.28564,5.28564H76.96436a3.28589,3.28589,0,0,1,0,6.57178H38.04a5.296,5.296,0,0,0-5.29,5.29v4.01318a1,1,0,0,0,2,0V83.78125a3.294,3.294,0,0,1,3.29-3.29H76.96436A5.29158,5.29158,0,0,0,82.25,75.20557ZM54.39307,50.91943a6.71411,6.71411,0,1,0-6.71436-6.71386A6.72133,6.72133,0,0,0,54.39307,50.91943Zm-4.71436-6.71386a4.71411,4.71411,0,1,1,4.71436,4.71386A4.71957,4.71957,0,0,1,49.67871,44.20557Zm2.21436,0a1.00005,1.00005,0,0,0,1,1h.5v.5a1,1,0,0,0,2,0v-.5h.5a1,1,0,0,0,0-2h-.5v-.5a1,1,0,0,0-2,0v.5h-.5A1,1,0,0,0,51.89307,44.20557Z"/><text x="0" y="115" fill="#000000" font-size="5px" font-weight="bold" font-family="'Helvetica Neue', Helvetica, Arial-Unicode, Arial, Sans-serif">Created by Path Lord</text><text x="0" y="120" fill="#000000" font-size="5px" font-weight="bold" font-family="'Helvetica Neue', Helvetica, Arial-Unicode, Arial, Sans-serif">from the Noun Project</text></svg>