<svg xmlns="http://www.w3.org/2000/svg" data-name="Layer 2" viewBox="0 0 100 125" x="0px" y="0px"><title>aArtboard 13</title><path d="M29.1001,69.7002a1.20251,1.20251,0,1,1-.84961.35382l.002-.00129.00141-.00213A1.19633,1.19633,0,0,1,29.1001,69.7002ZM37.9389,64.213A11.14215,11.14215,0,1,1,35.787,62.061,22.30075,22.30075,0,0,1,32.793,65.793l-2.261,2.261a3.07466,3.07466,0,0,0-2.86407.00006L24.23047,64.6167a.99989.99989,0,0,0-1.41406,1.41406l3.43737,3.43738a3.15859,3.15859,0,0,0-.35388,1.43176,3.20376,3.20376,0,0,0,3.2002,3.2002,3.15838,3.15838,0,0,0,1.43213-.354l3.43847,3.43848a.99989.99989,0,1,0,1.41407-1.41406L31.946,72.33179a3.07439,3.07439,0,0,0-.00006-2.86371L34.207,67.207A22.29588,22.29588,0,0,1,37.9389,64.213ZM22.27979,66.77051a1,1,0,0,0-1.32081.50439,8.83024,8.83024,0,0,0-.77246,3.63233,1,1,0,0,0,2,0,6.853,6.853,0,0,1,.59766-2.81592A.99937.99937,0,0,0,22.27979,66.77051ZM37.999,70.90723a1,1,0,0,0-2,0,6.85573,6.85573,0,0,1-.50683,2.60107,1.00022,1.00022,0,1,0,1.85254.75488A8.85806,8.85806,0,0,0,37.999,70.90723ZM98,50A48,48,0,1,1,50,2,48,48,0,0,1,98,50ZM84,70.8999A13.07607,13.07607,0,0,0,63.19757,60.3266a22.43085,22.43085,0,0,1,0-20.6532,13.14785,13.14785,0,1,0-2.87091-2.87091,22.43181,22.43181,0,0,1-20.65332,0,13.14763,13.14763,0,1,0-2.87091,2.87091,22.43085,22.43085,0,0,1,0,20.6532,13.14785,13.14785,0,1,0,2.87091,2.87091,22.43181,22.43181,0,0,1,20.65332,0A13.09226,13.09226,0,1,0,84,70.8999ZM29.946,28.25049a1.177,1.177,0,1,0,.00342.00336l-.00213-.00141ZM71.74615,29.9494l.00141-.00213.002-.00129a1.177,1.177,0,1,0-.00336.00342Zm-9.685,5.83765A11.14215,11.14215,0,1,1,64.213,37.939,22.30075,22.30075,0,0,1,67.207,34.207l2.261-2.26105a3.07466,3.07466,0,0,0,2.86407-.00006l3.43738,3.43738a.99989.99989,0,1,0,1.41406-1.41406l-3.43737-3.43738a3.15859,3.15859,0,0,0,.35388-1.43176,3.20376,3.20376,0,0,0-3.2002-3.2002,3.15838,3.15838,0,0,0-1.43213.354L66.0293,22.81543a.99989.99989,0,0,0-1.41407,1.41406L68.054,27.66821a3.07439,3.07439,0,0,0,.00006,2.86371l-2.261,2.261A22.29588,22.29588,0,0,1,62.0611,35.78705Zm15.788-2.77533a.99853.99853,0,0,0,1.30322-.54932,8.86194,8.86194,0,0,0,.65381-3.355,1,1,0,0,0-2,0,6.86826,6.86826,0,0,1-.50635,2.60108A1,1,0,0,0,77.84912,33.01172Zm-15.85547-3.9043a1,1,0,1,0,2,0,6.84852,6.84852,0,0,1,.59864-2.8164,1.00018,1.00018,0,0,0-1.82618-.81641A8.8408,8.8408,0,0,0,61.99365,29.10742ZM40.2002,29.1001a11.02855,11.02855,0,0,1-2.2613,6.687A22.29588,22.29588,0,0,1,34.207,32.793l-2.26105-2.261a3.07466,3.07466,0,0,0-.00006-2.86407l3.43738-3.43738a.99989.99989,0,1,0-1.41406-1.41406l-3.43738,3.43737a3.15859,3.15859,0,0,0-1.43176-.35388,3.20376,3.20376,0,0,0-3.2002,3.2002,3.15838,3.15838,0,0,0,.354,1.43213L22.81543,33.9707a.99989.99989,0,1,0,1.41406,1.41407L27.66821,31.946a3.07439,3.07439,0,0,0,2.86371-.00006L32.793,34.207A22.30075,22.30075,0,0,1,35.787,37.939,11.08606,11.08606,0,1,1,40.2002,29.1001ZM25.46729,37.23389a8.8408,8.8408,0,0,0,3.63281.77246,1,1,0,0,0,0-2,6.8486,6.8486,0,0,1-2.81641-.59864,1.00018,1.00018,0,1,0-.8164,1.82618Zm6.98779-16.38623a8.862,8.862,0,0,0-3.355-.65381,1,1,0,0,0,0,2,6.86817,6.86817,0,0,1,2.60107.50635,1,1,0,0,0,.75391-1.85254ZM54.76172,45.23828a12.74144,12.74144,0,0,0,0,9.52344,12.74618,12.74618,0,0,0-9.52344,0,12.74144,12.74144,0,0,0,0-9.52344A12.74615,12.74615,0,0,0,54.76172,45.23828ZM53.4751,50A3.4751,3.4751,0,1,0,50,53.4751,3.47924,3.47924,0,0,0,53.4751,50ZM50,48.5249A1.4751,1.4751,0,1,0,51.4751,50,1.47663,1.47663,0,0,0,50,48.5249ZM61.61182,61.61182a24.43714,24.43714,0,0,0-23.22364,0,24.43622,24.43622,0,0,0,0-23.22364,24.43353,24.43353,0,0,0,23.22364,0A24.43622,24.43622,0,0,0,61.61182,61.61182ZM58.957,58.957a.99963.99963,0,0,0,0-1.41406,10.6795,10.6795,0,0,1,0-15.08594A.99989.99989,0,0,0,57.543,41.043a10.6795,10.6795,0,0,1-15.08594,0A.99989.99989,0,1,0,41.043,42.457a10.6795,10.6795,0,0,1,0,15.08594A.99989.99989,0,0,0,42.457,58.957a10.6795,10.6795,0,0,1,15.08594,0,.99963.99963,0,0,0,1.41406,0ZM82,70.8999A11.10013,11.10013,0,1,1,62.0611,64.213,22.29588,22.29588,0,0,1,65.793,67.207l2.261,2.261a3.07466,3.07466,0,0,0,.00006,2.86407L64.6167,75.76953a.99989.99989,0,1,0,1.41406,1.41406l3.43738-3.43737a3.15859,3.15859,0,0,0,1.43176.35388,3.20376,3.20376,0,0,0,3.2002-3.2002,3.15838,3.15838,0,0,0-.354-1.43213l3.43848-3.43847a.99989.99989,0,1,0-1.41406-1.41407L72.33179,68.054a3.07439,3.07439,0,0,0-2.86371.00006l-2.261-2.261A22.30075,22.30075,0,0,1,64.213,62.061,11.07932,11.07932,0,0,1,82,70.8999Zm-7.47461-8.13379a8.8408,8.8408,0,0,0-3.63281-.77246,1,1,0,0,0,0,2,6.84852,6.84852,0,0,1,2.8164.59864,1.00018,1.00018,0,0,0,.81641-1.82618Zm-2.63281,16.04a1.00006,1.00006,0,0,0-1-1,6.86826,6.86826,0,0,1-2.60108-.50635,1,1,0,0,0-.7539,1.85254,8.86194,8.86194,0,0,0,3.355.65381A1.00005,1.00005,0,0,0,71.89258,78.80615ZM70.054,71.74951a1.19988,1.19988,0,1,0,.0003-1.69916l-.00159.00238-.00238.00159a1.19658,1.19658,0,0,0,.00025,1.69183l.00213.00141Z"/><text x="0" y="115" fill="#000000" font-size="5px" font-weight="bold" font-family="'Helvetica Neue', Helvetica, Arial-Unicode, Arial, Sans-serif">Created by Path Lord</text><text x="0" y="120" fill="#000000" font-size="5px" font-weight="bold" font-family="'Helvetica Neue', Helvetica, Arial-Unicode, Arial, Sans-serif">from the Noun Project</text></svg>