<svg xmlns="http://www.w3.org/2000/svg" data-name="Layer 2" viewBox="0 0 100 125" x="0px" y="0px"><title>Artboard 16</title><path d="M39,78a3,3,0,1,0,3,3A3.00328,3.00328,0,0,0,39,78Zm0,4a1,1,0,1,1,1-1A1.001,1.001,0,0,1,39,82Zm1-9a9.01016,9.01016,0,0,0-9,9,1,1,0,0,1-2,0A11.01245,11.01245,0,0,1,40,71a1,1,0,0,1,0,2Zm0-8A17.019,17.019,0,0,0,23,82a1,1,0,0,1-2,0A19.02162,19.02162,0,0,1,40,63a1,1,0,0,1,0,2ZM15,82a1,1,0,0,1-2,0A27.03077,27.03077,0,0,1,40,55a1,1,0,0,1,0,2A25.02817,25.02817,0,0,0,15,82ZM87,50A36.03057,36.03057,0,0,1,45.22754,85.53955a1.00005,1.00005,0,1,1,.31836-1.97461A34.32723,34.32723,0,0,0,50,83.96014V76.8335a1,1,0,0,1,2,0v7.14111A34.02861,34.02861,0,0,0,84.97461,51H77.833a1,1,0,0,1,0-2h7.1416A34.02861,34.02861,0,0,0,52,16.02539V23.1665a1,1,0,0,1-2,0V16.02539A34.02861,34.02861,0,0,0,17.02539,49H24.167a1,1,0,0,1,0,2H17.03851a34.2654,34.2654,0,0,0,.36774,4.271,1.00018,1.00018,0,1,1-1.97656.30761A36.00238,36.00238,0,1,1,87,50ZM51,31.30566a.99974.99974,0,0,0-1,1V46.83673a3.324,3.324,0,0,0,1,6.49677,3.28946,3.28946,0,0,0,1.53021-.38965l5.83209,5.83252a.9999.9999,0,1,0,1.41407-1.41407L53.944,51.52942A3.29082,3.29082,0,0,0,54.333,50,3.32678,3.32678,0,0,0,52,46.83673V32.30566A.99974.99974,0,0,0,51,31.30566ZM51,51.3335A1.3335,1.3335,0,1,1,52.333,50,1.33452,1.33452,0,0,1,51,51.3335Z"/><text x="0" y="115" fill="#000000" font-size="5px" font-weight="bold" font-family="'Helvetica Neue', Helvetica, Arial-Unicode, Arial, Sans-serif">Created by Path Lord</text><text x="0" y="120" fill="#000000" font-size="5px" font-weight="bold" font-family="'Helvetica Neue', Helvetica, Arial-Unicode, Arial, Sans-serif">from the Noun Project</text></svg>