<svg xmlns="http://www.w3.org/2000/svg" data-name="Layer 2" viewBox="0 0 100 125" x="0px" y="0px"><title>aArtboard 14</title><path d="M60.44775,35.40186a6.74841,6.74841,0,0,1,4.55664-2.69141c2.55469-.23877,5.3584,1.229,8.35743,4.34912-3.67823,2.25732-6.75782,2.96729-9.16455,2.10791A6.8048,6.8048,0,0,1,60.44775,35.40186ZM58.31592,16.67432c-.29834-2.5376-2.29932-4.9834-5.95362-7.27979-1.46289,4.06006-1.53173,7.21924-.20263,9.40186a6.80316,6.80316,0,0,0,4.4458,2.90576A6.80411,6.80411,0,0,0,58.31592,16.67432ZM47.0625,83.07666a1,1,0,1,0,1,1A1.0013,1.0013,0,0,0,47.0625,83.07666Zm5.936-55.40283c-2.55176-.16846-5.31788,1.35693-8.23926,4.53369,3.73828,2.18213,6.83886,2.82178,9.228,1.89844a6.74621,6.74621,0,0,0,3.647-3.835A6.80418,6.80418,0,0,0,52.99854,27.67383ZM40.9375,54.20166h36v-5.125h-36ZM98,50A48,48,0,1,1,50,2,48,48,0,0,1,98,50ZM23.0625,85.07666a25.02817,25.02817,0,0,1,25-25,1,1,0,0,0,0-2,27.03077,27.03077,0,0,0-27,27,1,1,0,0,0,2,0Zm25-17a1,1,0,0,0,0-2,19.02162,19.02162,0,0,0-19,19,1,1,0,0,0,2,0A17.019,17.019,0,0,1,48.0625,68.07666Zm0,8a1,1,0,0,0,0-2,11.01245,11.01245,0,0,0-11,11,1,1,0,0,0,2,0A9.01047,9.01047,0,0,1,48.0625,76.07666Zm2,8a3,3,0,1,0-3,3A3.00328,3.00328,0,0,0,50.0625,84.07666Zm28.875-36a1,1,0,0,0-1-1H59.46143a48.46892,48.46892,0,0,0,.86315-8.19513A7.85343,7.85343,0,0,0,63.49951,41.042a8.236,8.236,0,0,0,2.81348.47656c2.66943,0,5.7334-1.147,9.14795-3.42968a1.00044,1.00044,0,0,0,.19189-1.49561c-3.74365-4.21289-7.38623-6.18164-10.83056-5.87451a8.19309,8.19309,0,0,0-4.71222,2.12769,46.38242,46.38242,0,0,0-2.00458-9.82087,8.7246,8.7246,0,0,0,2.19971-6.55731c-.39063-3.43457-3.06592-6.60156-7.95118-9.41162a1,1,0,0,0-1.42529.49121c-2.11621,5.22363-2.272,9.36572-.46289,12.312A8.71825,8.71825,0,0,0,56.21,23.66333q.56123,1.747.94916,3.462a7.943,7.943,0,0,0-4.00244-1.44513c-3.44385-.23194-7.04785,1.81738-10.69776,6.11181a.99979.99979,0,0,0,.22413,1.49072c3.375,2.1504,6.39257,3.23,9.01416,3.23a8.30372,8.30372,0,0,0,3.00976-.54053,7.954,7.954,0,0,0,3.42664-2.59571,49.334,49.334,0,0,1-.71906,13.7002H39.9375a1,1,0,0,0-1,1v7.125a1,1,0,0,0,1,1H73.25275l-3.33136,28.875H52.4375a1,1,0,0,0,0,2h18.375a1.00066,1.00066,0,0,0,.99365-.88525l3.46033-29.98975h2.671a1,1,0,0,0,1-1Z"/><text x="0" y="115" fill="#000000" font-size="5px" font-weight="bold" font-family="'Helvetica Neue', Helvetica, Arial-Unicode, Arial, Sans-serif">Created by Path Lord</text><text x="0" y="120" fill="#000000" font-size="5px" font-weight="bold" font-family="'Helvetica Neue', Helvetica, Arial-Unicode, Arial, Sans-serif">from the Noun Project</text></svg>