<svg xmlns="http://www.w3.org/2000/svg" data-name="Layer 2" viewBox="0 0 100 125" x="0px" y="0px"><title>Artboard 7</title><path d="M32.00391,67.78662A1.00039,1.00039,0,0,0,33,68.875H47.5a1.00039,1.00039,0,0,0,.99609-1.08838A23.105,23.105,0,0,1,52.583,54.30371c6.71777-10.10889,7.81054-15.19043,7.85351-15.40185.00489-.02149.00879-.04346.01172-.06543a21.0001,21.0001,0,1,0-40.39648-.00049q.00439.033.01172.06592c.043.21142,1.13574,5.293,7.85351,15.40185A23.27564,23.27564,0,0,1,32.00391,67.78662ZM29.583,53.19629C23.66016,44.28418,22.25,39.396,22.0498,38.61279a1.059,1.059,0,0,0-.03515-.18945,19,19,0,1,1,36.4707,0,1.00857,1.00857,0,0,0-.03418.18555c-.19922.78027-1.60644,5.66894-7.53418,14.5874A25.77717,25.77717,0,0,0,46.47461,66.875H34.02539A25.77717,25.77717,0,0,0,29.583,53.19629ZM47.5,69.875H33a.99974.99974,0,0,0-1,1v8a.68.68,0,0,1,.03027.24268l1,4A.99972.99972,0,0,0,34,83.875h2v2a.99974.99974,0,0,0,1,1h6.5a.99974.99974,0,0,0,1-1v-2h2a.99972.99972,0,0,0,.96973-.75732l1-4A.68072.68072,0,0,1,48.5,78.875v-8A.99974.99974,0,0,0,47.5,69.875Zm-13.5,6H46.5v2H34Zm0-4H46.5v2H34Zm8.5,13H38v-1h4.5Zm3.21875-3H34.78125l-.5-2h11.9375ZM30.043,34.332a.99961.99961,0,0,1,.32715-1.63183l4.667-1.91651a.99776.99776,0,0,1,1.19238.3418l1.54785,2.15674,1.67969-2.1836a.94574.94574,0,0,1,.10089-.0877.93426.93426,0,0,1,.08271-.09491c.01879-.01453.04174-.01716.06115-.03009a.87968.87968,0,0,1,.55213-.16138.71868.71868,0,0,1,.362.07123.963.963,0,0,1,.18121.08947c.01984.01319.04315.016.06226.03077a.94013.94013,0,0,1,.08325.09552.95381.95381,0,0,1,.10034.08709l1.67969,2.1836,1.54785-2.15674a1.00169,1.00169,0,0,1,1.19238-.3418l4.667,1.91651A.99961.99961,0,0,1,50.457,34.332c-8.14062,8.14063-5.98633,28.146-5.96289,28.34717a1,1,0,0,1-1.9873.2251c-.09375-.82617-2.11719-19.59766,5.54589-28.895l-2.61816-1.07569L43.56248,35.5415a.99961.99961,0,0,1-.79588.417,1.01064,1.01064,0,0,1-.80957-.39014L40.25,33.34924l-1.707,2.21912a1.02876,1.02876,0,0,1-.80957.39014.99975.99975,0,0,1-.79592-.417l-1.87205-2.60791-2.61816,1.07569c7.66308,9.29736,5.63964,28.06885,5.54589,28.895a1,1,0,0,1-1.9873-.2251C36.0293,62.478,38.18359,42.47266,30.043,34.332ZM54.75,81.875a3,3,0,1,0,3,3A3.00328,3.00328,0,0,0,54.75,81.875Zm0,4a1,1,0,1,1,1-1A1.001,1.001,0,0,1,54.75,85.875Zm10,0a1,1,0,0,1-2,0,9.01016,9.01016,0,0,0-9-9,1,1,0,0,1,0-2A11.01245,11.01245,0,0,1,64.75,85.875Zm8,0a1,1,0,0,1-2,0,17.019,17.019,0,0,0-17-17,1,1,0,0,1,0-2A19.02162,19.02162,0,0,1,72.75,85.875Zm8,0a1,1,0,0,1-2,0,25.02817,25.02817,0,0,0-25-25,1,1,0,0,1,0-2A27.03077,27.03077,0,0,1,80.75,85.875Z"/><text x="0" y="115" fill="#000000" font-size="5px" font-weight="bold" font-family="'Helvetica Neue', Helvetica, Arial-Unicode, Arial, Sans-serif">Created by Path Lord</text><text x="0" y="120" fill="#000000" font-size="5px" font-weight="bold" font-family="'Helvetica Neue', Helvetica, Arial-Unicode, Arial, Sans-serif">from the Noun Project</text></svg>