<svg xmlns="http://www.w3.org/2000/svg" data-name="Layer 2" viewBox="0 0 100 125" x="0px" y="0px"><title>Artboard 20</title><path d="M54.02832,71.78613l-.27441,9.33155A3.98079,3.98079,0,0,1,49.75586,85H26.582a3.98163,3.98163,0,0,1-3.999-3.88232l-1.82324-62A4.00042,4.00042,0,0,1,24.75781,15H51.5791a4.00046,4.00046,0,0,1,3.999,4.11719L55.13867,34.0293a1.001,1.001,0,0,1-.999.9707l-.03027-.00049a1.001,1.001,0,0,1-.97071-1.02881l.43946-14.91162A1.99986,1.99986,0,0,0,51.5791,17H24.75781a1.99823,1.99823,0,0,0-1.998,2.05908l1.82324,62A1.9897,1.9897,0,0,0,26.582,83H49.75586a1.98885,1.98885,0,0,0,1.998-1.94092l.27441-9.33154a1.02725,1.02725,0,0,1,1.0293-.97022A1.001,1.001,0,0,1,54.02832,71.78613ZM38.169,42a10.5,10.5,0,1,1,10.5-10.5A10.5118,10.5118,0,0,1,38.169,42Zm8.5-10.5a8.5,8.5,0,1,0-8.5,8.5A8.50982,8.50982,0,0,0,46.669,31.5Zm-5,0a3.5,3.5,0,1,1-3.5-3.5A3.50425,3.50425,0,0,1,41.669,31.5Zm-2,0a1.5,1.5,0,1,0-1.5,1.5A1.50164,1.50164,0,0,0,39.669,31.5Zm-1.5,32.77832a6.625,6.625,0,1,1-6.625,6.625A6.63245,6.63245,0,0,1,38.169,64.27832Zm-4.625,6.625a4.625,4.625,0,1,0,4.625-4.625A4.63047,4.63047,0,0,0,33.544,70.90332Zm2.127-10.83691-1-15A1.00016,1.00016,0,0,1,35.669,44h5a1.00016,1.00016,0,0,1,.998,1.06641l-1,15A1.00042,1.00042,0,0,1,39.669,61h-3A1.00043,1.00043,0,0,1,35.6709,60.06641ZM36.73828,46l.86621,13H38.7334l.86621-13ZM56.24219,64.5a3,3,0,1,1-3-3A3.00328,3.00328,0,0,1,56.24219,64.5Zm-2,0a1,1,0,1,0-1,1A1.001,1.001,0,0,0,54.24219,64.5Zm-2-10a1,1,0,1,0,0,2,9.01016,9.01016,0,0,1,9,9,1,1,0,0,0,2,0A11.01245,11.01245,0,0,0,52.24219,54.5Zm0-8a1,1,0,1,0,0,2,17.019,17.019,0,0,1,17,17,1,1,0,0,0,2,0A19.02162,19.02162,0,0,0,52.24219,46.5Zm0-8a1,1,0,1,0,0,2,25.02817,25.02817,0,0,1,25,25,1,1,0,0,0,2,0A27.03078,27.03078,0,0,0,52.24219,38.5Z"/><text x="0" y="115" fill="#000000" font-size="5px" font-weight="bold" font-family="'Helvetica Neue', Helvetica, Arial-Unicode, Arial, Sans-serif">Created by Path Lord</text><text x="0" y="120" fill="#000000" font-size="5px" font-weight="bold" font-family="'Helvetica Neue', Helvetica, Arial-Unicode, Arial, Sans-serif">from the Noun Project</text></svg>