<svg xmlns="http://www.w3.org/2000/svg" data-name="Layer 2" viewBox="0 0 100 125" x="0px" y="0px"><title>Artboard 9</title><path d="M75.5,21.5h-55a.99974.99974,0,0,0-1,1v55a.99974.99974,0,0,0,1,1h55a.99974.99974,0,0,0,1-1v-55A.99974.99974,0,0,0,75.5,21.5Zm-1,55h-53v-53h53Zm6-31v9a1,1,0,0,1-2,0v-9a1,1,0,0,1,2,0Zm-50-26h35a.99974.99974,0,0,0,1-1,8.00917,8.00917,0,0,0-8-8h-21a8.00917,8.00917,0,0,0-8,8A.99974.99974,0,0,0,30.5,19.5Zm7-7h21a6.01033,6.01033,0,0,1,5.917,5H31.583A6.01033,6.01033,0,0,1,37.5,12.5Zm28,68h-35a.99974.99974,0,0,0-1,1,8.00917,8.00917,0,0,0,8,8h21a8.00917,8.00917,0,0,0,8-8A.99974.99974,0,0,0,65.5,80.5Zm-7,7h-21a6.01033,6.01033,0,0,1-5.917-5H64.417A6.01033,6.01033,0,0,1,58.5,87.5Zm-22-23a3,3,0,1,0-3-3A3.00328,3.00328,0,0,0,36.5,64.5Zm0-4a1,1,0,1,1-1,1A1.001,1.001,0,0,1,36.5,60.5Zm-2-8a.99974.99974,0,0,1,1-1,11.01245,11.01245,0,0,1,11,11,1,1,0,0,1-2,0,9.01016,9.01016,0,0,0-9-9A.99974.99974,0,0,1,34.5,52.5Zm0-8a.99974.99974,0,0,1,1-1,19.02162,19.02162,0,0,1,19,19,1,1,0,0,1-2,0,17.019,17.019,0,0,0-17-17A.99974.99974,0,0,1,34.5,44.5Zm0-8a.99974.99974,0,0,1,1-1,27.03077,27.03077,0,0,1,27,27,1,1,0,0,1-2,0,25.02817,25.02817,0,0,0-25-25A.99974.99974,0,0,1,34.5,36.5Z"/><text x="0" y="115" fill="#000000" font-size="5px" font-weight="bold" font-family="'Helvetica Neue', Helvetica, Arial-Unicode, Arial, Sans-serif">Created by Path Lord</text><text x="0" y="120" fill="#000000" font-size="5px" font-weight="bold" font-family="'Helvetica Neue', Helvetica, Arial-Unicode, Arial, Sans-serif">from the Noun Project</text></svg>