<svg xmlns="http://www.w3.org/2000/svg" data-name="Layer 2" viewBox="0 0 100 125" x="0px" y="0px"><title>aArtboard 16</title><path d="M51.333,50A1.333,1.333,0,1,1,50,48.6665,1.33452,1.33452,0,0,1,51.333,50ZM38,80a1,1,0,1,0,1,1A1.001,1.001,0,0,0,38,80ZM98,50A48,48,0,1,1,50,2,48,48,0,0,1,98,50ZM39,57a1,1,0,0,0,0-2A27.07907,27.07907,0,0,0,12.54883,76.56006a.999.999,0,0,0,.7793,1.17969.97689.97689,0,0,0,.20117.0205,1.00014,1.00014,0,0,0,.97851-.7998A25.0728,25.0728,0,0,1,39,57Zm0,8a1,1,0,0,0,0-2A19.02162,19.02162,0,0,0,20,82a1,1,0,0,0,2,0A17.019,17.019,0,0,1,39,65Zm0,8a1,1,0,0,0,0-2A11.01245,11.01245,0,0,0,28,82a1,1,0,0,0,2,0A9.01016,9.01016,0,0,1,39,73Zm2,8a3,3,0,1,0-3,3A3.00328,3.00328,0,0,0,41,81ZM86,50a36,36,0,1,0-71.57031,5.57861,1.00018,1.00018,0,1,0,1.97656-.30761A34.2654,34.2654,0,0,1,16.03851,51H23.167a1,1,0,0,0,0-2h-7.1416A34.02861,34.02861,0,0,1,49,16.02539V23.1665a1,1,0,0,0,2,0V16.02539A34.02861,34.02861,0,0,1,83.97461,49H76.833a1,1,0,0,0,0,2h7.1416A34.02861,34.02861,0,0,1,51,83.97461V76.8335a1,1,0,0,0-2,0v7.12664a34.32723,34.32723,0,0,1-4.4541-.3952,1.00005,1.00005,0,1,0-.31836,1.97461A36.03057,36.03057,0,0,0,86,50ZM51,46.83673V32.30566a1,1,0,1,0-2,0V46.83673a3.324,3.324,0,0,0,1,6.49677,3.28946,3.28946,0,0,0,1.53021-.38965l5.83209,5.83252a.9999.9999,0,1,0,1.41407-1.41407L52.944,51.52942A3.29082,3.29082,0,0,0,53.333,50,3.32678,3.32678,0,0,0,51,46.83673Z"/><text x="0" y="115" fill="#000000" font-size="5px" font-weight="bold" font-family="'Helvetica Neue', Helvetica, Arial-Unicode, Arial, Sans-serif">Created by Path Lord</text><text x="0" y="120" fill="#000000" font-size="5px" font-weight="bold" font-family="'Helvetica Neue', Helvetica, Arial-Unicode, Arial, Sans-serif">from the Noun Project</text></svg>