<svg xmlns="http://www.w3.org/2000/svg" data-name="Layer 2" viewBox="0 0 100 125" x="0px" y="0px"><title>aArtboard 7</title><path d="M36,76.875H48.5v2H36Zm20.75,8a1,1,0,1,0,1,1A1.001,1.001,0,0,0,56.75,84.875Zm-16.75,1h4.5v-1H40Zm-4-11H48.5v-2H36Zm.78125,8h10.9375l.5-2H36.28125ZM98,50A48,48,0,1,1,50,2,48,48,0,0,1,98,50ZM29.917,55.30371a23.27564,23.27564,0,0,1,4.08692,13.48291A1.00039,1.00039,0,0,0,35,69.875H49.5a1.00039,1.00039,0,0,0,.99609-1.08838A23.105,23.105,0,0,1,54.583,55.30371c6.71777-10.10889,7.81054-15.19043,7.85351-15.40185.00489-.02149.00879-.04346.01172-.06543a21.0001,21.0001,0,1,0-40.39648-.00049q.00439.033.01172.06592C22.10645,40.11328,23.19922,45.19482,29.917,55.30371ZM50.5,71.875a.99974.99974,0,0,0-1-1H35a.99974.99974,0,0,0-1,1v8a.68.68,0,0,1,.03027.24268l1,4A.99972.99972,0,0,0,36,84.875h2v2a.99974.99974,0,0,0,1,1h6.5a.99974.99974,0,0,0,1-1v-2h2a.99972.99972,0,0,0,.96973-.75732l1-4A.68072.68072,0,0,1,50.5,79.875v-8Zm9.25,14a3,3,0,1,0-3,3A3.00328,3.00328,0,0,0,59.75,85.875Zm7,1a11.01245,11.01245,0,0,0-11-11,1,1,0,0,0,0,2,9.01016,9.01016,0,0,1,9,9,1,1,0,0,0,2,0Zm7.7373-3.16553A18.932,18.932,0,0,0,55.75,67.875a1,1,0,0,0,0,2A16.9371,16.9371,0,0,1,72.51465,84.04053,1.00041,1.00041,0,0,0,73.5,84.875a.99987.99987,0,0,0,.9873-1.16553Zm7.52735-3.11816A26.9,26.9,0,0,0,55.75,59.875a1,1,0,0,0,0,2A24.90719,24.90719,0,0,1,80.06934,81.05518a.99993.99993,0,0,0,1.94531-.46387ZM36.02539,67.875A25.77717,25.77717,0,0,0,31.583,54.19629C25.66016,45.28418,24.25,40.396,24.0498,39.61279a1.059,1.059,0,0,0-.03515-.18945,19,19,0,1,1,36.4707,0,1.00857,1.00857,0,0,0-.03418.18555c-.19922.78027-1.60644,5.66894-7.53418,14.5874A25.77717,25.77717,0,0,0,48.47461,67.875ZM32.043,35.332c8.14062,8.14063,5.98633,28.146,5.96289,28.34717a1,1,0,0,0,1.9873.2251c.09375-.82617,2.11719-19.59766-5.54589-28.895l2.61816-1.07569L38.9375,36.5415a.99968.99968,0,0,0,.7959.417,1.10294,1.10294,0,0,0,.80957-.39014l1.707-2.21912,1.707,2.21912a1.09443,1.09443,0,0,0,.80957.39014.99968.99968,0,0,0,.7959-.417l1.87207-2.60791,2.61816,1.07569c-7.66308,9.29736-5.63964,28.06885-5.54589,28.895a1,1,0,0,0,1.9873-.2251C46.4707,63.478,44.31641,43.47266,52.457,35.332a.99961.99961,0,0,0-.32715-1.63183l-4.667-1.91651a1.00363,1.00363,0,0,0-1.19238.3418l-1.54785,2.15674L43.043,32.09863a.93375.93375,0,0,1-.18359-.18261c-.019-.01465-.04224-.0174-.06189-.03052a1.43981,1.43981,0,0,0-.35993-.14929,1.08463,1.08463,0,0,0-.73694.15026c-.019.01276-.04156.01532-.06.02955a.94793.94793,0,0,1-.1836.18261l-1.67969,2.1836-1.54785-2.15674a1,1,0,0,0-1.19238-.3418l-4.667,1.91651A.99961.99961,0,0,0,32.043,35.332Z"/><text x="0" y="115" fill="#000000" font-size="5px" font-weight="bold" font-family="'Helvetica Neue', Helvetica, Arial-Unicode, Arial, Sans-serif">Created by Path Lord</text><text x="0" y="120" fill="#000000" font-size="5px" font-weight="bold" font-family="'Helvetica Neue', Helvetica, Arial-Unicode, Arial, Sans-serif">from the Noun Project</text></svg>