<svg xmlns="http://www.w3.org/2000/svg" data-name="Layer 2" viewBox="0 0 100 125" x="0px" y="0px"><title>Artboard 3</title><path d="M72.5,65.75a14.99279,14.99279,0,0,0,1.49951-29.91113C74,35.80957,74,35.77979,74,35.75a17.49117,17.49117,0,0,0-33.02979-8.03955,13.46538,13.46538,0,0,0-16.10253,8.28564A14.99276,14.99276,0,0,0,27.5,65.75H50v6.10107A5.01458,5.01458,0,0,0,46.10107,75.75H25a1,1,0,0,0,0,2H46.10107a4.99994,4.99994,0,0,0,9.79786,0H77a1,1,0,0,0,0-2H55.89893A5.01458,5.01458,0,0,0,52,71.85107V65.75ZM54,76.75a3,3,0,1,1-3-3A3.00328,3.00328,0,0,1,54,76.75Zm-39.5-26A13.0292,13.0292,0,0,1,25.74756,37.88281a1.00084,1.00084,0,0,0,.81738-.68261,11.47009,11.47009,0,0,1,14.61133-7.33887,1.00132,1.00132,0,0,0,1.22949-.53223A15.49192,15.49192,0,0,1,72,35.75c0,.23877-.01709.47363-.0332.7085l-.0166.25244a1,1,0,0,0,.9663,1.061A12.99223,12.99223,0,0,1,72.5,63.75h-45A13.01442,13.01442,0,0,1,14.5,50.75Zm25.875,5a3,3,0,1,0,3,3A3.00328,3.00328,0,0,0,40.375,55.75Zm0,4a1,1,0,1,1,1-1A1.0013,1.0013,0,0,1,40.375,59.75Zm10,0a1,1,0,0,1-2,0,9.01047,9.01047,0,0,0-9-9,1,1,0,0,1,0-2A11.01245,11.01245,0,0,1,50.375,59.75Zm-12-18a1,1,0,0,1,1-1,19.02162,19.02162,0,0,1,19,19,1,1,0,0,1-2,0,17.019,17.019,0,0,0-17-17A1,1,0,0,1,38.375,41.75Zm0-8a1,1,0,0,1,1-1,27.03077,27.03077,0,0,1,27,27,1,1,0,0,1-2,0,25.02817,25.02817,0,0,0-25-25A1,1,0,0,1,38.375,33.75Z"/><text x="0" y="115" fill="#000000" font-size="5px" font-weight="bold" font-family="'Helvetica Neue', Helvetica, Arial-Unicode, Arial, Sans-serif">Created by Path Lord</text><text x="0" y="120" fill="#000000" font-size="5px" font-weight="bold" font-family="'Helvetica Neue', Helvetica, Arial-Unicode, Arial, Sans-serif">from the Noun Project</text></svg>