<svg xmlns="http://www.w3.org/2000/svg" data-name="Layer 2" viewBox="0 0 100 125" x="0px" y="0px"><title>aArtboard 2</title><path d="M28.019,66a4,4,0,1,1-4-4A4.00458,4.00458,0,0,1,28.019,66ZM54,21a4,4,0,1,0-4,4A4.00458,4.00458,0,0,0,54,21ZM24.019,34a2,2,0,1,0,2,2A2.002,2.002,0,0,0,24.019,34Zm50.2378,2.99512.00067.002a2.25436,2.25436,0,1,0-.00177-.00323ZM48,81a2,2,0,1,0,2-2A2.002,2.002,0,0,0,48,81ZM98,50A48,48,0,1,1,50,2,48,48,0,0,1,98,50ZM81.981,66a5.99738,5.99738,0,0,0-10.62091-3.82251L60.84357,56.10565a11.84882,11.84882,0,0,0-.00006-10.21136l12.28778-7.09455a4.22133,4.22133,0,1,0-.98926-1.73858L59.8465,44.1601A11.99358,11.99358,0,0,0,51,39.05066v-12.141a6,6,0,1,0-2,0v12.141a11.99358,11.99358,0,0,0-8.84656,5.1095L27.858,37.06128A3.94747,3.94747,0,0,0,28.019,36a4.01238,4.01238,0,1,0-1.15045,2.79987l12.28784,7.09448a11.849,11.849,0,0,0,.00006,10.21142L28.64,62.17749a6.08408,6.08408,0,1,0,.99671,1.73431L40.1535,57.8399A11.99358,11.99358,0,0,0,49,62.94934V77.142a4,4,0,1,0,2,0V62.94934a11.99369,11.99369,0,0,0,8.84662-5.10956l10.51672,6.072A5.997,5.997,0,1,0,81.981,66Zm-6-4a4,4,0,1,0,4,4A4.00458,4.00458,0,0,0,75.981,62ZM50,41A10,10,0,1,0,60,51,10.01114,10.01114,0,0,0,50,41Z"/><text x="0" y="115" fill="#000000" font-size="5px" font-weight="bold" font-family="'Helvetica Neue', Helvetica, Arial-Unicode, Arial, Sans-serif">Created by Path Lord</text><text x="0" y="120" fill="#000000" font-size="5px" font-weight="bold" font-family="'Helvetica Neue', Helvetica, Arial-Unicode, Arial, Sans-serif">from the Noun Project</text></svg>