<svg xmlns="http://www.w3.org/2000/svg" data-name="Layer 2" viewBox="0 0 100 125" x="0px" y="0px"><title>Artboard 6</title><path d="M76.75,50.3335a.99974.99974,0,0,0-1,1V61H59.29413L57.708,55.71289A1.00024,1.00024,0,0,0,56.75,55h-32a1.00024,1.00024,0,0,0-.958.71289L22.20587,61H5.75V40h8.05957L16.958,43.65283A1.00033,1.00033,0,0,0,17.71582,44H60.8877a1.00035,1.00035,0,0,0,.75781-.34717l3.44824-4a1.00023,1.00023,0,0,0-1.51562-1.30566L60.42969,42H57.75V23a.99974.99974,0,0,0-1-1h-32a.99974.99974,0,0,0-1,1V42H18.17383l-3.14844-3.65283A1.00035,1.00035,0,0,0,14.26758,38H4.75a.99974.99974,0,0,0-1,1V62a.99974.99974,0,0,0,1,1H21.60583L17.792,75.71289A1.03972,1.03972,0,0,1,17.75,76v4a.99974.99974,0,0,0,1,1h44a.99974.99974,0,0,0,1-1V76a1.03552,1.03552,0,0,1-.042-.28711L59.89417,63H76.75a.99974.99974,0,0,0,1-1V51.3335A.99974.99974,0,0,0,76.75,50.3335ZM25.75,24h30V42h-30Zm36,55h-42V77h42ZM20.09375,75l5.40039-18H56.00586l5.40039,18ZM70.25,48a3,3,0,1,0-3-3A3.00328,3.00328,0,0,0,70.25,48Zm0-4a1,1,0,1,1-1,1A1.001,1.001,0,0,1,70.25,44Zm10,2a1,1,0,0,1-2,0,9.01016,9.01016,0,0,0-9-9,1,1,0,0,1,0-2A11.01245,11.01245,0,0,1,80.25,46Zm8,0a1,1,0,0,1-2,0,17.019,17.019,0,0,0-17-17,1,1,0,0,1,0-2A19.02162,19.02162,0,0,1,88.25,46Zm8,0a1,1,0,0,1-2,0,25.02817,25.02817,0,0,0-25-25,1,1,0,0,1,0-2A27.03077,27.03077,0,0,1,96.25,46Z"/><text x="0" y="115" fill="#000000" font-size="5px" font-weight="bold" font-family="'Helvetica Neue', Helvetica, Arial-Unicode, Arial, Sans-serif">Created by Path Lord</text><text x="0" y="120" fill="#000000" font-size="5px" font-weight="bold" font-family="'Helvetica Neue', Helvetica, Arial-Unicode, Arial, Sans-serif">from the Noun Project</text></svg>