<svg xmlns="http://www.w3.org/2000/svg" data-name="Layer 2" viewBox="0 0 100 125" x="0px" y="0px"><title>aArtboard 18</title><path d="M31.5,35h32a1.001,1.001,0,0,0,1-1V16a1.001,1.001,0,0,0-1-1h-32a1.001,1.001,0,0,0-1,1V34A1.001,1.001,0,0,0,31.5,35Zm2-12a.99974.99974,0,0,1,1-1h3a.99974.99974,0,0,1,1,1v6a.99974.99974,0,0,1-1,1h-3a.99974.99974,0,0,1-1-1Zm20,52a1,1,0,1,1-1,1A1.001,1.001,0,0,1,53.5,75Zm-18-33h1V54h-1Zm1-14h-1V24h1ZM50,2A48,48,0,1,0,98,50,48,48,0,0,0,50,2ZM66.5,86a3.00328,3.00328,0,0,1-3,3h-32a3.00328,3.00328,0,0,1-3-3V38a2.97711,2.97711,0,0,1,.78027-2A2.97711,2.97711,0,0,1,28.5,34V16a3.00328,3.00328,0,0,1,3-3h32a3.00328,3.00328,0,0,1,3,3V34a2.97711,2.97711,0,0,1-.78027,2A2.97711,2.97711,0,0,1,66.5,38V50.0835a1,1,0,0,1-2,0V38a1.001,1.001,0,0,0-1-1h-32a1.001,1.001,0,0,0-1,1V86a1.001,1.001,0,0,0,1,1h32a1.001,1.001,0,0,0,1-1V79.5835a1,1,0,0,1,2,0Zm-14-18a1,1,0,0,1,0-2,11.01245,11.01245,0,0,1,11,11,1,1,0,0,1-2,0A9.01016,9.01016,0,0,0,52.5,68Zm4,8a3,3,0,1,1-3-3A3.00328,3.00328,0,0,1,56.5,76Zm-18-35V55a.99974.99974,0,0,1-1,1h-3a.99974.99974,0,0,1-1-1V41a.99974.99974,0,0,1,1-1h3A.99974.99974,0,0,1,38.5,41Zm32,37a.99974.99974,0,0,1-1-1,17.019,17.019,0,0,0-17-17,1,1,0,0,1,0-2,19.02162,19.02162,0,0,1,19,19A.99974.99974,0,0,1,70.5,78Zm8,0a.99974.99974,0,0,1-1-1,25.02817,25.02817,0,0,0-25-25,1,1,0,0,1,0-2,27.03077,27.03077,0,0,1,27,27A.99974.99974,0,0,1,78.5,78Z"/><text x="0" y="115" fill="#000000" font-size="5px" font-weight="bold" font-family="'Helvetica Neue', Helvetica, Arial-Unicode, Arial, Sans-serif">Created by Path Lord</text><text x="0" y="120" fill="#000000" font-size="5px" font-weight="bold" font-family="'Helvetica Neue', Helvetica, Arial-Unicode, Arial, Sans-serif">from the Noun Project</text></svg>