<svg xmlns="http://www.w3.org/2000/svg" data-name="Layer 2" viewBox="0 0 100 125" x="0px" y="0px"><title>aArtboard 12</title><path d="M48.98779,48.11182l.4961,3.47314L46.8252,48.11182Zm20.91309-7.021-.99561-1.99121H52.17969l-.9961,1.99121ZM50.71826,46.08447l.37915,2.65406.90747,6.34985-.00006.00165,2.4195,16.93536h3.048L55.61957,46.08447ZM49.56543,82.67383a.66309.66309,0,1,0,.66309.66308A.66372.66372,0,0,0,49.56543,82.67383ZM62.53613,36.106h-3.9873v.99365h3.9873ZM98,50A48,48,0,1,1,50,2,48,48,0,0,1,98,50ZM56.54883,37.09961H51.56152a.99987.99987,0,0,0-.89453.55273L48.6709,41.64355a1.00009,1.00009,0,0,0,.89453,1.44727H71.519a1.00009,1.00009,0,0,0,.89453-1.44727L70.418,37.65234a.99986.99986,0,0,0-.89453-.55273H64.53613V35.106a1,1,0,0,0-1-1h-5.9873a1,1,0,0,0-1,1ZM48.897,33.5542a4.18435,4.18435,0,0,1-2.12207,2.02685,1.00069,1.00069,0,0,0-.44531,1.44825c1.38477,2.20263-.51123,4.2915-.60449,4.39209a1.0001,1.0001,0,0,0,1.45263,1.375,5.85765,5.85765,0,0,0,1.32032-5.88819,5.407,5.407,0,0,0,2.3042-2.74658,3.70971,3.70971,0,0,0-.09864-2.47217,7.91887,7.91887,0,0,0,2.59229-4.27832c.50049-2.35156-.15723-4.8833-1.9541-7.5249a.99989.99989,0,1,0-1.65332,1.125c1.47119,2.16309,2.02832,4.168,1.65673,5.959A6.06979,6.06979,0,0,1,48.92139,30.543a1,1,0,0,0-.32813,1.36963A1.95446,1.95446,0,0,1,48.897,33.5542ZM34.31738,19.83252a.99634.99634,0,0,0,.99854.98828h.00146a1.004,1.004,0,0,0,1-.99463c.00342-.35254.16455-3.45459,4.65772-3.81006a4.67364,4.67364,0,0,1,4.4751,2.39014,6.07712,6.07712,0,0,1-.416,6.48682.99986.99986,0,1,0,1.65723,1.11914,8.05741,8.05741,0,0,0,.48632-8.61377A6.63809,6.63809,0,0,0,40.81689,14.022C35.645,14.43115,34.30371,18.002,34.31738,19.83252ZM29.85938,22.5a1.00206,1.00206,0,0,0,1.14013.83643c3.51563-.53955,5.78076,1.17529,6.72412,2.96093a4.27878,4.27878,0,0,1-.46045,4.98535c-1.39648,1.4961-1.92529,2.97413-1.57177,4.39258A5.55043,5.55043,0,0,0,38.81152,38.98a3.49591,3.49591,0,0,0,.56543,2.43066,3.62329,3.62329,0,0,0,2.47315,1.418.95644.95644,0,0,0,.09814.00489.99993.99993,0,0,0,.09619-1.99512,1.6707,1.6707,0,0,1-1.03222-.57861,2.00308,2.00308,0,0,1-.10889-1.64454.9998.9998,0,0,0-.644-1.18994c-.58789-.20263-2.33106-1.04687-2.627-2.23388-.17919-.71875.18848-1.5752,1.09278-2.54444a6.24956,6.24956,0,0,0,.76709-7.28369c-1.26465-2.394-4.23926-4.70264-8.79639-4.00342A.99948.99948,0,0,0,29.85938,22.5Zm-2.19532,8.32715a5.91972,5.91972,0,0,0,3.77,4.64355.99984.99984,0,1,0,.65137-1.89062,3.91266,3.91266,0,0,1-2.48193-3.78955,1.00022,1.00022,0,0,0-1.17579-1.01416A4.9604,4.9604,0,0,1,24.13965,27.395a4.58907,4.58907,0,0,1-.92725-3.50195,4.9147,4.9147,0,0,1,2.0166-3.4585,1,1,0,1,0-1.15918-1.62988A6.98477,6.98477,0,0,0,21.22754,23.648a6.52129,6.52129,0,0,0,1.3916,5.0459A6.52927,6.52927,0,0,0,27.66406,30.82715ZM27.4043,38.624c1.521,3.96534,5.57422,4.70118,7.97119,4.51758a7.93272,7.93272,0,0,0,6.5039,3.0044,9.26635,9.26635,0,0,0,1.99366-.20069.9999.9999,0,0,0-.45948-1.94629c-.18359.042-4.48095.98975-6.72461-2.4624a1.00272,1.00272,0,0,0-.99365-.44287c-.20019.03174-4.92773.71484-6.42383-3.18555a.99984.99984,0,1,0-1.86718.71582Zm2.37207,45.54444A20.64506,20.64506,0,0,1,46.43066,63.92871a.99994.99994,0,1,0-.38281-1.96289A22.64871,22.64871,0,0,0,27.77637,84.16846a1,1,0,0,0,2,0Zm18.6792-13.835a1,1,0,0,0-.27539-1.981A16.0258,16.0258,0,0,0,34.42871,84.16846a1,1,0,0,0,2,0A14.01758,14.01758,0,0,1,48.45557,70.3335Zm1.9414,6.519a1,1,0,1,0,0-2,9.32617,9.32617,0,0,0-9.31543,9.31592,1,1,0,0,0,2,0A7.32389,7.32389,0,0,1,50.397,76.85254Zm1.83155,6.48437A2.66309,2.66309,0,1,0,49.56543,86,2.66632,2.66632,0,0,0,52.22852,83.33691ZM72.519,80.01074a1.00005,1.00005,0,0,0-1-1H70.02246a1.49664,1.49664,0,0,1-1.49512-1.49463V76.019a1.00005,1.00005,0,0,0-1-1H53.55713a1.00005,1.00005,0,0,0-1,1v1.49707a1.48876,1.48876,0,0,1-1.04443,1.42578.99978.99978,0,0,0,.60058,1.90723,3.47957,3.47957,0,0,0,2.44385-3.333V77.019H66.52734v.49707a3.49893,3.49893,0,0,0,3.49512,3.49463H70.519V84H53.63574a1,1,0,0,0,0,2H71.519a1,1,0,0,0,1-1Zm6.29737-32.37011a1.00032,1.00032,0,0,0-.98926-1.146H72.32758l.18121-1.26856a.99979.99979,0,0,0-.98975-1.1416H49.56543a.99979.99979,0,0,0-.98975,1.1416l.12653.88575H44.80029a1,1,0,0,0-.79394,1.60791L50.062,55.62994,52.56738,73.167a.99964.99964,0,0,0,.98975.8584H67.52734a.99963.99963,0,0,0,.98975-.8584l.95062-6.65411,3.7154-1.95477a7.594,7.594,0,0,0,3.96484-5.5962ZM69.81677,64.06952l2.43469-1.28095a5.59018,5.59018,0,0,0,2.918-4.11816L76.669,48.49463H72.04181ZM59.4776,72.02539h2.12927l1.85272-25.94092H57.62488Zm5.9873-25.94092L63.61218,72.02539h3.048l3.706-25.94092Z"/><text x="0" y="115" fill="#000000" font-size="5px" font-weight="bold" font-family="'Helvetica Neue', Helvetica, Arial-Unicode, Arial, Sans-serif">Created by Path Lord</text><text x="0" y="120" fill="#000000" font-size="5px" font-weight="bold" font-family="'Helvetica Neue', Helvetica, Arial-Unicode, Arial, Sans-serif">from the Noun Project</text></svg>